<?xml version="1.0" encoding="utf-8" standalone="no"?>
<!DOCTYPE svg PUBLIC "-//W3C//DTD SVG 1.1//EN"
  "http://www.w3.org/Graphics/SVG/1.1/DTD/svg11.dtd">
<!-- Created with matplotlib (https://matplotlib.org/) -->
<svg height="1080pt" version="1.1" viewBox="0 0 504 1080" width="504pt" xmlns="http://www.w3.org/2000/svg" xmlns:xlink="http://www.w3.org/1999/xlink">
 <metadata>
  <rdf:RDF xmlns:cc="http://creativecommons.org/ns#" xmlns:dc="http://purl.org/dc/elements/1.1/" xmlns:rdf="http://www.w3.org/1999/02/22-rdf-syntax-ns#">
   <cc:Work>
    <dc:type rdf:resource="http://purl.org/dc/dcmitype/StillImage"/>
    <dc:date>2022-05-06T16:33:29.578310</dc:date>
    <dc:format>image/svg+xml</dc:format>
    <dc:creator>
     <cc:Agent>
      <dc:title>Matplotlib v3.3.2, https://matplotlib.org/</dc:title>
     </cc:Agent>
    </dc:creator>
   </cc:Work>
  </rdf:RDF>
 </metadata>
 <defs>
  <style type="text/css">*{stroke-linecap:butt;stroke-linejoin:round;}</style>
 </defs>
 <g id="figure_1">
  <g id="patch_1">
   <path d="M 0 1080 
L 504 1080 
L 504 0 
L 0 0 
z
" style="fill:#ffffff;"/>
  </g>
  <g id="axes_1">
   <g id="patch_2">
    <path d="M 64.1 1018.024 
L 482.685915 1018.024 
L 482.685915 63.864 
L 64.1 63.864 
z
" style="fill:#ffffff;"/>
   </g>
   <g id="patch_3">
    <path clip-path="url(#p0403eac006)" d="M 273.392957 189.054306 
L 254.682086 189.054306 
L 254.682086 163.692887 
L 273.392957 163.692887 
z
" style="fill:#707070;stroke:#000000;stroke-linejoin:miter;stroke-width:0.25;"/>
   </g>
   <g id="patch_4">
    <path clip-path="url(#p0403eac006)" d="M 273.392957 141.501645 
L 346.758987 141.501645 
L 346.758987 116.140226 
L 273.392957 116.140226 
z
" style="fill:#c4cafc;stroke:#000000;stroke-linejoin:miter;stroke-width:0.25;"/>
   </g>
   <g id="patch_5">
    <path clip-path="url(#p0403eac006)" d="M 273.392957 141.501645 
L 193.495726 141.501645 
L 193.495726 116.140226 
L 273.392957 116.140226 
z
" style="fill:#2f7cce;stroke:#000000;stroke-linejoin:miter;stroke-width:0.25;"/>
   </g>
   <g id="patch_6">
    <path clip-path="url(#p0403eac006)" d="M 273.392957 93.948984 
L 131.432044 93.948984 
L 131.432044 68.587564 
L 273.392957 68.587564 
z
" style="fill:#fdffd2;stroke:#000000;stroke-linejoin:miter;stroke-width:0.25;"/>
   </g>
   <g id="patch_7">
    <path clip-path="url(#p0403eac006)" d="M 273.392957 93.948984 
L 403.174201 93.948984 
L 403.174201 68.587564 
L 273.392957 68.587564 
z
" style="fill:#ffff80;stroke:#000000;stroke-linejoin:miter;stroke-width:0.25;"/>
   </g>
   <g id="matplotlib.axis_1">
    <g id="xtick_1">
     <g id="line2d_1">
      <defs>
       <path d="M 0 0 
L 0 3.5 
" id="m9306d1cfb0" style="stroke:#000000;stroke-width:0.8;"/>
      </defs>
      <g>
       <use style="stroke:#000000;stroke-width:0.8;" x="69.421715" xlink:href="#m9306d1cfb0" y="1018.024"/>
      </g>
     </g>
     <g id="text_1">
      <!-- -3.0 -->
      <g transform="translate(55.764059 1035.661812)scale(0.14 -0.14)">
       <defs>
        <path d="M 4.890625 31.390625 
L 31.203125 31.390625 
L 31.203125 23.390625 
L 4.890625 23.390625 
z
" id="DejaVuSans-45"/>
        <path d="M 40.578125 39.3125 
Q 47.65625 37.796875 51.625 33 
Q 55.609375 28.21875 55.609375 21.1875 
Q 55.609375 10.40625 48.1875 4.484375 
Q 40.765625 -1.421875 27.09375 -1.421875 
Q 22.515625 -1.421875 17.65625 -0.515625 
Q 12.796875 0.390625 7.625 2.203125 
L 7.625 11.71875 
Q 11.71875 9.328125 16.59375 8.109375 
Q 21.484375 6.890625 26.8125 6.890625 
Q 36.078125 6.890625 40.9375 10.546875 
Q 45.796875 14.203125 45.796875 21.1875 
Q 45.796875 27.640625 41.28125 31.265625 
Q 36.765625 34.90625 28.71875 34.90625 
L 20.21875 34.90625 
L 20.21875 43.015625 
L 29.109375 43.015625 
Q 36.375 43.015625 40.234375 45.921875 
Q 44.09375 48.828125 44.09375 54.296875 
Q 44.09375 59.90625 40.109375 62.90625 
Q 36.140625 65.921875 28.71875 65.921875 
Q 24.65625 65.921875 20.015625 65.03125 
Q 15.375 64.15625 9.8125 62.3125 
L 9.8125 71.09375 
Q 15.4375 72.65625 20.34375 73.4375 
Q 25.25 74.21875 29.59375 74.21875 
Q 40.828125 74.21875 47.359375 69.109375 
Q 53.90625 64.015625 53.90625 55.328125 
Q 53.90625 49.265625 50.4375 45.09375 
Q 46.96875 40.921875 40.578125 39.3125 
z
" id="DejaVuSans-51"/>
        <path d="M 10.6875 12.40625 
L 21 12.40625 
L 21 0 
L 10.6875 0 
z
" id="DejaVuSans-46"/>
        <path d="M 31.78125 66.40625 
Q 24.171875 66.40625 20.328125 58.90625 
Q 16.5 51.421875 16.5 36.375 
Q 16.5 21.390625 20.328125 13.890625 
Q 24.171875 6.390625 31.78125 6.390625 
Q 39.453125 6.390625 43.28125 13.890625 
Q 47.125 21.390625 47.125 36.375 
Q 47.125 51.421875 43.28125 58.90625 
Q 39.453125 66.40625 31.78125 66.40625 
z
M 31.78125 74.21875 
Q 44.046875 74.21875 50.515625 64.515625 
Q 56.984375 54.828125 56.984375 36.375 
Q 56.984375 17.96875 50.515625 8.265625 
Q 44.046875 -1.421875 31.78125 -1.421875 
Q 19.53125 -1.421875 13.0625 8.265625 
Q 6.59375 17.96875 6.59375 36.375 
Q 6.59375 54.828125 13.0625 64.515625 
Q 19.53125 74.21875 31.78125 74.21875 
z
" id="DejaVuSans-48"/>
       </defs>
       <use xlink:href="#DejaVuSans-45"/>
       <use x="36.083984" xlink:href="#DejaVuSans-51"/>
       <use x="99.707031" xlink:href="#DejaVuSans-46"/>
       <use x="131.494141" xlink:href="#DejaVuSans-48"/>
      </g>
     </g>
    </g>
    <g id="xtick_2">
     <g id="line2d_2">
      <g>
       <use style="stroke:#000000;stroke-width:0.8;" x="137.412129" xlink:href="#m9306d1cfb0" y="1018.024"/>
      </g>
     </g>
     <g id="text_2">
      <!-- -2.0 -->
      <g transform="translate(123.754473 1035.661812)scale(0.14 -0.14)">
       <defs>
        <path d="M 19.1875 8.296875 
L 53.609375 8.296875 
L 53.609375 0 
L 7.328125 0 
L 7.328125 8.296875 
Q 12.9375 14.109375 22.625 23.890625 
Q 32.328125 33.6875 34.8125 36.53125 
Q 39.546875 41.84375 41.421875 45.53125 
Q 43.3125 49.21875 43.3125 52.78125 
Q 43.3125 58.59375 39.234375 62.25 
Q 35.15625 65.921875 28.609375 65.921875 
Q 23.96875 65.921875 18.8125 64.3125 
Q 13.671875 62.703125 7.8125 59.421875 
L 7.8125 69.390625 
Q 13.765625 71.78125 18.9375 73 
Q 24.125 74.21875 28.421875 74.21875 
Q 39.75 74.21875 46.484375 68.546875 
Q 53.21875 62.890625 53.21875 53.421875 
Q 53.21875 48.921875 51.53125 44.890625 
Q 49.859375 40.875 45.40625 35.40625 
Q 44.1875 33.984375 37.640625 27.21875 
Q 31.109375 20.453125 19.1875 8.296875 
z
" id="DejaVuSans-50"/>
       </defs>
       <use xlink:href="#DejaVuSans-45"/>
       <use x="36.083984" xlink:href="#DejaVuSans-50"/>
       <use x="99.707031" xlink:href="#DejaVuSans-46"/>
       <use x="131.494141" xlink:href="#DejaVuSans-48"/>
      </g>
     </g>
    </g>
    <g id="xtick_3">
     <g id="line2d_3">
      <g>
       <use style="stroke:#000000;stroke-width:0.8;" x="205.402543" xlink:href="#m9306d1cfb0" y="1018.024"/>
      </g>
     </g>
     <g id="text_3">
      <!-- -1.0 -->
      <g transform="translate(191.744887 1035.661812)scale(0.14 -0.14)">
       <defs>
        <path d="M 12.40625 8.296875 
L 28.515625 8.296875 
L 28.515625 63.921875 
L 10.984375 60.40625 
L 10.984375 69.390625 
L 28.421875 72.90625 
L 38.28125 72.90625 
L 38.28125 8.296875 
L 54.390625 8.296875 
L 54.390625 0 
L 12.40625 0 
z
" id="DejaVuSans-49"/>
       </defs>
       <use xlink:href="#DejaVuSans-45"/>
       <use x="36.083984" xlink:href="#DejaVuSans-49"/>
       <use x="99.707031" xlink:href="#DejaVuSans-46"/>
       <use x="131.494141" xlink:href="#DejaVuSans-48"/>
      </g>
     </g>
    </g>
    <g id="xtick_4">
     <g id="line2d_4">
      <g>
       <use style="stroke:#000000;stroke-width:0.8;" x="273.392957" xlink:href="#m9306d1cfb0" y="1018.024"/>
      </g>
     </g>
     <g id="text_4">
      <!-- 0.0 -->
      <g transform="translate(262.26077 1035.661812)scale(0.14 -0.14)">
       <use xlink:href="#DejaVuSans-48"/>
       <use x="63.623047" xlink:href="#DejaVuSans-46"/>
       <use x="95.410156" xlink:href="#DejaVuSans-48"/>
      </g>
     </g>
    </g>
    <g id="xtick_5">
     <g id="line2d_5">
      <g>
       <use style="stroke:#000000;stroke-width:0.8;" x="341.383371" xlink:href="#m9306d1cfb0" y="1018.024"/>
      </g>
     </g>
     <g id="text_5">
      <!-- 1.0 -->
      <g transform="translate(330.251184 1035.661812)scale(0.14 -0.14)">
       <use xlink:href="#DejaVuSans-49"/>
       <use x="63.623047" xlink:href="#DejaVuSans-46"/>
       <use x="95.410156" xlink:href="#DejaVuSans-48"/>
      </g>
     </g>
    </g>
    <g id="xtick_6">
     <g id="line2d_6">
      <g>
       <use style="stroke:#000000;stroke-width:0.8;" x="409.373785" xlink:href="#m9306d1cfb0" y="1018.024"/>
      </g>
     </g>
     <g id="text_6">
      <!-- 2.0 -->
      <g transform="translate(398.241598 1035.661812)scale(0.14 -0.14)">
       <use xlink:href="#DejaVuSans-50"/>
       <use x="63.623047" xlink:href="#DejaVuSans-46"/>
       <use x="95.410156" xlink:href="#DejaVuSans-48"/>
      </g>
     </g>
    </g>
    <g id="xtick_7">
     <g id="line2d_7">
      <g>
       <use style="stroke:#000000;stroke-width:0.8;" x="477.3642" xlink:href="#m9306d1cfb0" y="1018.024"/>
      </g>
     </g>
     <g id="text_7">
      <!-- 3.0 -->
      <g transform="translate(466.232012 1035.661812)scale(0.14 -0.14)">
       <use xlink:href="#DejaVuSans-51"/>
       <use x="63.623047" xlink:href="#DejaVuSans-46"/>
       <use x="95.410156" xlink:href="#DejaVuSans-48"/>
      </g>
     </g>
    </g>
    <g id="text_8">
     <!-- Score shift $\delta \Phi_{\tau}$ (%) -->
     <g transform="translate(177.892957 1057.77025)scale(0.2 -0.2)">
      <defs>
       <path d="M 53.515625 70.515625 
L 53.515625 60.890625 
Q 47.90625 63.578125 42.921875 64.890625 
Q 37.9375 66.21875 33.296875 66.21875 
Q 25.25 66.21875 20.875 63.09375 
Q 16.5 59.96875 16.5 54.203125 
Q 16.5 49.359375 19.40625 46.890625 
Q 22.3125 44.4375 30.421875 42.921875 
L 36.375 41.703125 
Q 47.40625 39.59375 52.65625 34.296875 
Q 57.90625 29 57.90625 20.125 
Q 57.90625 9.515625 50.796875 4.046875 
Q 43.703125 -1.421875 29.984375 -1.421875 
Q 24.8125 -1.421875 18.96875 -0.25 
Q 13.140625 0.921875 6.890625 3.21875 
L 6.890625 13.375 
Q 12.890625 10.015625 18.65625 8.296875 
Q 24.421875 6.59375 29.984375 6.59375 
Q 38.421875 6.59375 43.015625 9.90625 
Q 47.609375 13.234375 47.609375 19.390625 
Q 47.609375 24.75 44.3125 27.78125 
Q 41.015625 30.8125 33.5 32.328125 
L 27.484375 33.5 
Q 16.453125 35.6875 11.515625 40.375 
Q 6.59375 45.0625 6.59375 53.421875 
Q 6.59375 63.09375 13.40625 68.65625 
Q 20.21875 74.21875 32.171875 74.21875 
Q 37.3125 74.21875 42.625 73.28125 
Q 47.953125 72.359375 53.515625 70.515625 
z
" id="DejaVuSans-83"/>
       <path d="M 48.78125 52.59375 
L 48.78125 44.1875 
Q 44.96875 46.296875 41.140625 47.34375 
Q 37.3125 48.390625 33.40625 48.390625 
Q 24.65625 48.390625 19.8125 42.84375 
Q 14.984375 37.3125 14.984375 27.296875 
Q 14.984375 17.28125 19.8125 11.734375 
Q 24.65625 6.203125 33.40625 6.203125 
Q 37.3125 6.203125 41.140625 7.25 
Q 44.96875 8.296875 48.78125 10.40625 
L 48.78125 2.09375 
Q 45.015625 0.34375 40.984375 -0.53125 
Q 36.96875 -1.421875 32.421875 -1.421875 
Q 20.0625 -1.421875 12.78125 6.34375 
Q 5.515625 14.109375 5.515625 27.296875 
Q 5.515625 40.671875 12.859375 48.328125 
Q 20.21875 56 33.015625 56 
Q 37.15625 56 41.109375 55.140625 
Q 45.0625 54.296875 48.78125 52.59375 
z
" id="DejaVuSans-99"/>
       <path d="M 30.609375 48.390625 
Q 23.390625 48.390625 19.1875 42.75 
Q 14.984375 37.109375 14.984375 27.296875 
Q 14.984375 17.484375 19.15625 11.84375 
Q 23.34375 6.203125 30.609375 6.203125 
Q 37.796875 6.203125 41.984375 11.859375 
Q 46.1875 17.53125 46.1875 27.296875 
Q 46.1875 37.015625 41.984375 42.703125 
Q 37.796875 48.390625 30.609375 48.390625 
z
M 30.609375 56 
Q 42.328125 56 49.015625 48.375 
Q 55.71875 40.765625 55.71875 27.296875 
Q 55.71875 13.875 49.015625 6.21875 
Q 42.328125 -1.421875 30.609375 -1.421875 
Q 18.84375 -1.421875 12.171875 6.21875 
Q 5.515625 13.875 5.515625 27.296875 
Q 5.515625 40.765625 12.171875 48.375 
Q 18.84375 56 30.609375 56 
z
" id="DejaVuSans-111"/>
       <path d="M 41.109375 46.296875 
Q 39.59375 47.171875 37.8125 47.578125 
Q 36.03125 48 33.890625 48 
Q 26.265625 48 22.1875 43.046875 
Q 18.109375 38.09375 18.109375 28.8125 
L 18.109375 0 
L 9.078125 0 
L 9.078125 54.6875 
L 18.109375 54.6875 
L 18.109375 46.1875 
Q 20.953125 51.171875 25.484375 53.578125 
Q 30.03125 56 36.53125 56 
Q 37.453125 56 38.578125 55.875 
Q 39.703125 55.765625 41.0625 55.515625 
z
" id="DejaVuSans-114"/>
       <path d="M 56.203125 29.59375 
L 56.203125 25.203125 
L 14.890625 25.203125 
Q 15.484375 15.921875 20.484375 11.0625 
Q 25.484375 6.203125 34.421875 6.203125 
Q 39.59375 6.203125 44.453125 7.46875 
Q 49.3125 8.734375 54.109375 11.28125 
L 54.109375 2.78125 
Q 49.265625 0.734375 44.1875 -0.34375 
Q 39.109375 -1.421875 33.890625 -1.421875 
Q 20.796875 -1.421875 13.15625 6.1875 
Q 5.515625 13.8125 5.515625 26.8125 
Q 5.515625 40.234375 12.765625 48.109375 
Q 20.015625 56 32.328125 56 
Q 43.359375 56 49.78125 48.890625 
Q 56.203125 41.796875 56.203125 29.59375 
z
M 47.21875 32.234375 
Q 47.125 39.59375 43.09375 43.984375 
Q 39.0625 48.390625 32.421875 48.390625 
Q 24.90625 48.390625 20.390625 44.140625 
Q 15.875 39.890625 15.1875 32.171875 
z
" id="DejaVuSans-101"/>
       <path id="DejaVuSans-32"/>
       <path d="M 44.28125 53.078125 
L 44.28125 44.578125 
Q 40.484375 46.53125 36.375 47.5 
Q 32.28125 48.484375 27.875 48.484375 
Q 21.1875 48.484375 17.84375 46.4375 
Q 14.5 44.390625 14.5 40.28125 
Q 14.5 37.15625 16.890625 35.375 
Q 19.28125 33.59375 26.515625 31.984375 
L 29.59375 31.296875 
Q 39.15625 29.25 43.1875 25.515625 
Q 47.21875 21.78125 47.21875 15.09375 
Q 47.21875 7.46875 41.1875 3.015625 
Q 35.15625 -1.421875 24.609375 -1.421875 
Q 20.21875 -1.421875 15.453125 -0.5625 
Q 10.6875 0.296875 5.421875 2 
L 5.421875 11.28125 
Q 10.40625 8.6875 15.234375 7.390625 
Q 20.0625 6.109375 24.8125 6.109375 
Q 31.15625 6.109375 34.5625 8.28125 
Q 37.984375 10.453125 37.984375 14.40625 
Q 37.984375 18.0625 35.515625 20.015625 
Q 33.0625 21.96875 24.703125 23.78125 
L 21.578125 24.515625 
Q 13.234375 26.265625 9.515625 29.90625 
Q 5.8125 33.546875 5.8125 39.890625 
Q 5.8125 47.609375 11.28125 51.796875 
Q 16.75 56 26.8125 56 
Q 31.78125 56 36.171875 55.265625 
Q 40.578125 54.546875 44.28125 53.078125 
z
" id="DejaVuSans-115"/>
       <path d="M 54.890625 33.015625 
L 54.890625 0 
L 45.90625 0 
L 45.90625 32.71875 
Q 45.90625 40.484375 42.875 44.328125 
Q 39.84375 48.1875 33.796875 48.1875 
Q 26.515625 48.1875 22.3125 43.546875 
Q 18.109375 38.921875 18.109375 30.90625 
L 18.109375 0 
L 9.078125 0 
L 9.078125 75.984375 
L 18.109375 75.984375 
L 18.109375 46.1875 
Q 21.34375 51.125 25.703125 53.5625 
Q 30.078125 56 35.796875 56 
Q 45.21875 56 50.046875 50.171875 
Q 54.890625 44.34375 54.890625 33.015625 
z
" id="DejaVuSans-104"/>
       <path d="M 9.421875 54.6875 
L 18.40625 54.6875 
L 18.40625 0 
L 9.421875 0 
z
M 9.421875 75.984375 
L 18.40625 75.984375 
L 18.40625 64.59375 
L 9.421875 64.59375 
z
" id="DejaVuSans-105"/>
       <path d="M 37.109375 75.984375 
L 37.109375 68.5 
L 28.515625 68.5 
Q 23.6875 68.5 21.796875 66.546875 
Q 19.921875 64.59375 19.921875 59.515625 
L 19.921875 54.6875 
L 34.71875 54.6875 
L 34.71875 47.703125 
L 19.921875 47.703125 
L 19.921875 0 
L 10.890625 0 
L 10.890625 47.703125 
L 2.296875 47.703125 
L 2.296875 54.6875 
L 10.890625 54.6875 
L 10.890625 58.5 
Q 10.890625 67.625 15.140625 71.796875 
Q 19.390625 75.984375 28.609375 75.984375 
z
" id="DejaVuSans-102"/>
       <path d="M 18.3125 70.21875 
L 18.3125 54.6875 
L 36.8125 54.6875 
L 36.8125 47.703125 
L 18.3125 47.703125 
L 18.3125 18.015625 
Q 18.3125 11.328125 20.140625 9.421875 
Q 21.96875 7.515625 27.59375 7.515625 
L 36.8125 7.515625 
L 36.8125 0 
L 27.59375 0 
Q 17.1875 0 13.234375 3.875 
Q 9.28125 7.765625 9.28125 18.015625 
L 9.28125 47.703125 
L 2.6875 47.703125 
L 2.6875 54.6875 
L 9.28125 54.6875 
L 9.28125 70.21875 
z
" id="DejaVuSans-116"/>
       <path d="M 54.25 63.328125 
Q 49.953125 66.75 38.28125 66.75 
Q 25.921875 66.75 24.8125 61.03125 
Q 23.921875 56.546875 36.375 54.203125 
Q 46.140625 52.390625 50.828125 46.921875 
Q 56.5 40.328125 53.859375 26.8125 
Q 51.3125 13.875 43.171875 6.25 
Q 34.96875 -1.421875 23.25 -1.421875 
Q 11.578125 -1.421875 6.34375 6.25 
Q 1.125 13.875 3.765625 27.296875 
Q 5.671875 37.25 13.921875 45.3125 
Q 17.140625 48.4375 21.140625 50.203125 
Q 14.265625 54.046875 15.625 60.9375 
Q 18.21875 74.21875 39.75 74.21875 
Q 50.53125 74.21875 55.71875 70.796875 
z
M 27.390625 47.75 
Q 23.828125 46.34375 20.40625 42.78125 
Q 15.140625 37.25 13.234375 27.296875 
Q 11.28125 17.390625 14.359375 11.8125 
Q 17.484375 6.203125 24.75 6.203125 
Q 31.9375 6.203125 37.203125 11.859375 
Q 42.53125 17.53125 44.34375 26.8125 
Q 46.1875 36.53125 42.671875 41.21875 
Q 38.921875 46.234375 32.859375 46.78125 
Q 29.78125 47.078125 27.390625 47.75 
z
" id="DejaVuSans-Oblique-948"/>
       <path d="M 34.46875 56.9375 
Q 27.15625 55.90625 22.359375 51.65625 
Q 16.015625 46.046875 16.015625 36.375 
Q 16.015625 26.765625 22.359375 21.140625 
Q 27.15625 16.890625 34.46875 15.875 
z
M 44.34375 15.875 
Q 51.65625 16.890625 56.453125 21.140625 
Q 62.703125 26.765625 62.703125 36.375 
Q 62.703125 46.046875 56.453125 51.65625 
Q 51.65625 55.90625 44.34375 56.9375 
z
M 34.46875 7.71875 
Q 22.5625 8.796875 14.84375 15.328125 
Q 5.609375 23.140625 5.609375 36.375 
Q 5.609375 49.609375 14.84375 57.46875 
Q 22.515625 64.0625 34.46875 65.140625 
L 34.46875 72.90625 
L 44.34375 72.90625 
L 44.34375 65.140625 
Q 56.25 64.015625 63.921875 57.46875 
Q 73.09375 49.609375 73.09375 36.375 
Q 73.09375 23.1875 63.921875 15.328125 
Q 56.25 8.796875 44.34375 7.671875 
L 44.34375 0 
L 34.46875 0 
z
" id="DejaVuSans-934"/>
       <path d="M 32.859375 9.96875 
Q 34.1875 7.625 39.453125 7.625 
L 43.75 7.625 
L 42.28125 0 
L 36.921875 0 
Q 28.125 0 25 4.6875 
Q 21.921875 9.46875 23.96875 19.828125 
L 29 45.703125 
L 8.453125 45.703125 
L 10.203125 54.6875 
L 60.640625 54.6875 
L 58.890625 45.703125 
L 38.1875 45.703125 
L 33.015625 19.28125 
Q 31.640625 12.203125 32.859375 9.96875 
z
" id="DejaVuSans-Oblique-964"/>
       <path d="M 31 75.875 
Q 24.46875 64.65625 21.28125 53.65625 
Q 18.109375 42.671875 18.109375 31.390625 
Q 18.109375 20.125 21.3125 9.0625 
Q 24.515625 -2 31 -13.1875 
L 23.1875 -13.1875 
Q 15.875 -1.703125 12.234375 9.375 
Q 8.59375 20.453125 8.59375 31.390625 
Q 8.59375 42.28125 12.203125 53.3125 
Q 15.828125 64.359375 23.1875 75.875 
z
" id="DejaVuSans-40"/>
       <path d="M 72.703125 32.078125 
Q 68.453125 32.078125 66.03125 28.46875 
Q 63.625 24.859375 63.625 18.40625 
Q 63.625 12.0625 66.03125 8.421875 
Q 68.453125 4.78125 72.703125 4.78125 
Q 76.859375 4.78125 79.265625 8.421875 
Q 81.6875 12.0625 81.6875 18.40625 
Q 81.6875 24.8125 79.265625 28.4375 
Q 76.859375 32.078125 72.703125 32.078125 
z
M 72.703125 38.28125 
Q 80.421875 38.28125 84.953125 32.90625 
Q 89.5 27.546875 89.5 18.40625 
Q 89.5 9.28125 84.9375 3.921875 
Q 80.375 -1.421875 72.703125 -1.421875 
Q 64.890625 -1.421875 60.34375 3.921875 
Q 55.8125 9.28125 55.8125 18.40625 
Q 55.8125 27.59375 60.375 32.9375 
Q 64.9375 38.28125 72.703125 38.28125 
z
M 22.3125 68.015625 
Q 18.109375 68.015625 15.6875 64.375 
Q 13.28125 60.75 13.28125 54.390625 
Q 13.28125 47.953125 15.671875 44.328125 
Q 18.0625 40.71875 22.3125 40.71875 
Q 26.5625 40.71875 28.96875 44.328125 
Q 31.390625 47.953125 31.390625 54.390625 
Q 31.390625 60.6875 28.953125 64.34375 
Q 26.515625 68.015625 22.3125 68.015625 
z
M 66.40625 74.21875 
L 74.21875 74.21875 
L 28.609375 -1.421875 
L 20.796875 -1.421875 
z
M 22.3125 74.21875 
Q 30.03125 74.21875 34.609375 68.875 
Q 39.203125 63.53125 39.203125 54.390625 
Q 39.203125 45.171875 34.640625 39.84375 
Q 30.078125 34.515625 22.3125 34.515625 
Q 14.546875 34.515625 10.03125 39.859375 
Q 5.515625 45.21875 5.515625 54.390625 
Q 5.515625 63.484375 10.046875 68.84375 
Q 14.59375 74.21875 22.3125 74.21875 
z
" id="DejaVuSans-37"/>
       <path d="M 8.015625 75.875 
L 15.828125 75.875 
Q 23.140625 64.359375 26.78125 53.3125 
Q 30.421875 42.28125 30.421875 31.390625 
Q 30.421875 20.453125 26.78125 9.375 
Q 23.140625 -1.703125 15.828125 -13.1875 
L 8.015625 -13.1875 
Q 14.5 -2 17.703125 9.0625 
Q 20.90625 20.125 20.90625 31.390625 
Q 20.90625 42.671875 17.703125 53.65625 
Q 14.5 64.65625 8.015625 75.875 
z
" id="DejaVuSans-41"/>
      </defs>
      <use transform="translate(0 0.015625)" xlink:href="#DejaVuSans-83"/>
      <use transform="translate(63.476562 0.015625)" xlink:href="#DejaVuSans-99"/>
      <use transform="translate(118.457031 0.015625)" xlink:href="#DejaVuSans-111"/>
      <use transform="translate(179.638672 0.015625)" xlink:href="#DejaVuSans-114"/>
      <use transform="translate(220.751953 0.015625)" xlink:href="#DejaVuSans-101"/>
      <use transform="translate(282.275391 0.015625)" xlink:href="#DejaVuSans-32"/>
      <use transform="translate(314.0625 0.015625)" xlink:href="#DejaVuSans-115"/>
      <use transform="translate(366.162109 0.015625)" xlink:href="#DejaVuSans-104"/>
      <use transform="translate(429.541016 0.015625)" xlink:href="#DejaVuSans-105"/>
      <use transform="translate(457.324219 0.015625)" xlink:href="#DejaVuSans-102"/>
      <use transform="translate(492.529297 0.015625)" xlink:href="#DejaVuSans-116"/>
      <use transform="translate(531.738281 0.015625)" xlink:href="#DejaVuSans-32"/>
      <use transform="translate(563.525391 0.015625)" xlink:href="#DejaVuSans-Oblique-948"/>
      <use transform="translate(624.707031 0.015625)" xlink:href="#DejaVuSans-934"/>
      <use transform="translate(704.375 -16.390625)scale(0.7)" xlink:href="#DejaVuSans-Oblique-964"/>
      <use transform="translate(749.25293 0.015625)" xlink:href="#DejaVuSans-32"/>
      <use transform="translate(781.040039 0.015625)" xlink:href="#DejaVuSans-40"/>
      <use transform="translate(820.053711 0.015625)" xlink:href="#DejaVuSans-37"/>
      <use transform="translate(915.073242 0.015625)" xlink:href="#DejaVuSans-41"/>
     </g>
    </g>
   </g>
   <g id="matplotlib.axis_2">
    <g id="ytick_1">
     <g id="line2d_8">
      <defs>
       <path d="M 0 0 
L -3.5 0 
" id="m8b3269d447" style="stroke:#000000;stroke-width:0.8;"/>
      </defs>
      <g>
       <use style="stroke:#000000;stroke-width:0.8;" x="64.1" xlink:href="#m8b3269d447" y="1000.619726"/>
      </g>
     </g>
     <g id="text_9">
      <!-- 25 -->
      <g transform="translate(39.285 1005.938632)scale(0.14 -0.14)">
       <defs>
        <path d="M 10.796875 72.90625 
L 49.515625 72.90625 
L 49.515625 64.59375 
L 19.828125 64.59375 
L 19.828125 46.734375 
Q 21.96875 47.46875 24.109375 47.828125 
Q 26.265625 48.1875 28.421875 48.1875 
Q 40.625 48.1875 47.75 41.5 
Q 54.890625 34.8125 54.890625 23.390625 
Q 54.890625 11.625 47.5625 5.09375 
Q 40.234375 -1.421875 26.90625 -1.421875 
Q 22.3125 -1.421875 17.546875 -0.640625 
Q 12.796875 0.140625 7.71875 1.703125 
L 7.71875 11.625 
Q 12.109375 9.234375 16.796875 8.0625 
Q 21.484375 6.890625 26.703125 6.890625 
Q 35.15625 6.890625 40.078125 11.328125 
Q 45.015625 15.765625 45.015625 23.390625 
Q 45.015625 31 40.078125 35.4375 
Q 35.15625 39.890625 26.703125 39.890625 
Q 22.75 39.890625 18.8125 39.015625 
Q 14.890625 38.140625 10.796875 36.28125 
z
" id="DejaVuSans-53"/>
       </defs>
       <use xlink:href="#DejaVuSans-50"/>
       <use x="63.623047" xlink:href="#DejaVuSans-53"/>
      </g>
     </g>
    </g>
    <g id="ytick_2">
     <g id="line2d_9">
      <g>
       <use style="stroke:#000000;stroke-width:0.8;" x="64.1" xlink:href="#m8b3269d447" y="842.110855"/>
      </g>
     </g>
     <g id="text_10">
      <!-- 20 -->
      <g transform="translate(39.285 847.429761)scale(0.14 -0.14)">
       <use xlink:href="#DejaVuSans-50"/>
       <use x="63.623047" xlink:href="#DejaVuSans-48"/>
      </g>
     </g>
    </g>
    <g id="ytick_3">
     <g id="line2d_10">
      <g>
       <use style="stroke:#000000;stroke-width:0.8;" x="64.1" xlink:href="#m8b3269d447" y="683.601984"/>
      </g>
     </g>
     <g id="text_11">
      <!-- 15 -->
      <g transform="translate(39.285 688.92089)scale(0.14 -0.14)">
       <use xlink:href="#DejaVuSans-49"/>
       <use x="63.623047" xlink:href="#DejaVuSans-53"/>
      </g>
     </g>
    </g>
    <g id="ytick_4">
     <g id="line2d_11">
      <g>
       <use style="stroke:#000000;stroke-width:0.8;" x="64.1" xlink:href="#m8b3269d447" y="525.093113"/>
      </g>
     </g>
     <g id="text_12">
      <!-- 10 -->
      <g transform="translate(39.285 530.412019)scale(0.14 -0.14)">
       <use xlink:href="#DejaVuSans-49"/>
       <use x="63.623047" xlink:href="#DejaVuSans-48"/>
      </g>
     </g>
    </g>
    <g id="ytick_5">
     <g id="line2d_12">
      <g>
       <use style="stroke:#000000;stroke-width:0.8;" x="64.1" xlink:href="#m8b3269d447" y="366.584242"/>
      </g>
     </g>
     <g id="text_13">
      <!-- 5 -->
      <g transform="translate(48.1925 371.903148)scale(0.14 -0.14)">
       <use xlink:href="#DejaVuSans-53"/>
      </g>
     </g>
    </g>
    <g id="ytick_6">
     <g id="line2d_13">
      <g>
       <use style="stroke:#000000;stroke-width:0.8;" x="64.1" xlink:href="#m8b3269d447" y="239.777145"/>
      </g>
     </g>
     <g id="text_14">
      <!-- 1 -->
      <g transform="translate(48.1925 245.096051)scale(0.14 -0.14)">
       <use xlink:href="#DejaVuSans-49"/>
      </g>
     </g>
    </g>
    <g id="text_15">
     <!-- Rank -->
     <g transform="translate(31.125625 565.923688)rotate(-90)scale(0.2 -0.2)">
      <defs>
       <path d="M 44.390625 34.1875 
Q 47.5625 33.109375 50.5625 29.59375 
Q 53.5625 26.078125 56.59375 19.921875 
L 66.609375 0 
L 56 0 
L 46.6875 18.703125 
Q 43.0625 26.03125 39.671875 28.421875 
Q 36.28125 30.8125 30.421875 30.8125 
L 19.671875 30.8125 
L 19.671875 0 
L 9.8125 0 
L 9.8125 72.90625 
L 32.078125 72.90625 
Q 44.578125 72.90625 50.734375 67.671875 
Q 56.890625 62.453125 56.890625 51.90625 
Q 56.890625 45.015625 53.6875 40.46875 
Q 50.484375 35.9375 44.390625 34.1875 
z
M 19.671875 64.796875 
L 19.671875 38.921875 
L 32.078125 38.921875 
Q 39.203125 38.921875 42.84375 42.21875 
Q 46.484375 45.515625 46.484375 51.90625 
Q 46.484375 58.296875 42.84375 61.546875 
Q 39.203125 64.796875 32.078125 64.796875 
z
" id="DejaVuSans-82"/>
       <path d="M 34.28125 27.484375 
Q 23.390625 27.484375 19.1875 25 
Q 14.984375 22.515625 14.984375 16.5 
Q 14.984375 11.71875 18.140625 8.90625 
Q 21.296875 6.109375 26.703125 6.109375 
Q 34.1875 6.109375 38.703125 11.40625 
Q 43.21875 16.703125 43.21875 25.484375 
L 43.21875 27.484375 
z
M 52.203125 31.203125 
L 52.203125 0 
L 43.21875 0 
L 43.21875 8.296875 
Q 40.140625 3.328125 35.546875 0.953125 
Q 30.953125 -1.421875 24.3125 -1.421875 
Q 15.921875 -1.421875 10.953125 3.296875 
Q 6 8.015625 6 15.921875 
Q 6 25.140625 12.171875 29.828125 
Q 18.359375 34.515625 30.609375 34.515625 
L 43.21875 34.515625 
L 43.21875 35.40625 
Q 43.21875 41.609375 39.140625 45 
Q 35.0625 48.390625 27.6875 48.390625 
Q 23 48.390625 18.546875 47.265625 
Q 14.109375 46.140625 10.015625 43.890625 
L 10.015625 52.203125 
Q 14.9375 54.109375 19.578125 55.046875 
Q 24.21875 56 28.609375 56 
Q 40.484375 56 46.34375 49.84375 
Q 52.203125 43.703125 52.203125 31.203125 
z
" id="DejaVuSans-97"/>
       <path d="M 54.890625 33.015625 
L 54.890625 0 
L 45.90625 0 
L 45.90625 32.71875 
Q 45.90625 40.484375 42.875 44.328125 
Q 39.84375 48.1875 33.796875 48.1875 
Q 26.515625 48.1875 22.3125 43.546875 
Q 18.109375 38.921875 18.109375 30.90625 
L 18.109375 0 
L 9.078125 0 
L 9.078125 54.6875 
L 18.109375 54.6875 
L 18.109375 46.1875 
Q 21.34375 51.125 25.703125 53.5625 
Q 30.078125 56 35.796875 56 
Q 45.21875 56 50.046875 50.171875 
Q 54.890625 44.34375 54.890625 33.015625 
z
" id="DejaVuSans-110"/>
       <path d="M 9.078125 75.984375 
L 18.109375 75.984375 
L 18.109375 31.109375 
L 44.921875 54.6875 
L 56.390625 54.6875 
L 27.390625 29.109375 
L 57.625 0 
L 45.90625 0 
L 18.109375 26.703125 
L 18.109375 0 
L 9.078125 0 
z
" id="DejaVuSans-107"/>
      </defs>
      <use xlink:href="#DejaVuSans-82"/>
      <use x="67.232422" xlink:href="#DejaVuSans-97"/>
      <use x="128.511719" xlink:href="#DejaVuSans-110"/>
      <use x="191.890625" xlink:href="#DejaVuSans-107"/>
     </g>
    </g>
   </g>
   <g id="patch_8">
    <path d="M 64.1 1018.024 
L 64.1 63.864 
" style="fill:none;stroke:#000000;stroke-linecap:square;stroke-linejoin:miter;stroke-width:0.8;"/>
   </g>
   <g id="patch_9">
    <path d="M 482.685915 1018.024 
L 482.685915 63.864 
" style="fill:none;stroke:#000000;stroke-linecap:square;stroke-linejoin:miter;stroke-width:0.8;"/>
   </g>
   <g id="patch_10">
    <path d="M 64.1 1018.024 
L 482.685915 1018.024 
" style="fill:none;stroke:#000000;stroke-linecap:square;stroke-linejoin:miter;stroke-width:0.8;"/>
   </g>
   <g id="patch_11">
    <path d="M 64.1 63.864 
L 482.685915 63.864 
" style="fill:none;stroke:#000000;stroke-linecap:square;stroke-linejoin:miter;stroke-width:0.8;"/>
   </g>
   <g id="text_16">
    <!-- ref: $\Phi_{avg}=$5.42 -->
    <g transform="translate(204.992957 35.868)scale(0.18 -0.18)">
     <defs>
      <path d="M 11.71875 12.40625 
L 22.015625 12.40625 
L 22.015625 0 
L 11.71875 0 
z
M 11.71875 51.703125 
L 22.015625 51.703125 
L 22.015625 39.3125 
L 11.71875 39.3125 
z
" id="DejaVuSans-58"/>
      <path d="M 53.71875 31.203125 
L 47.609375 0 
L 38.625 0 
L 40.28125 8.296875 
Q 36.328125 3.421875 31.265625 1 
Q 26.21875 -1.421875 20.015625 -1.421875 
Q 13.03125 -1.421875 8.5625 2.84375 
Q 4.109375 7.125 4.109375 13.8125 
Q 4.109375 23.390625 11.75 28.953125 
Q 19.390625 34.515625 32.8125 34.515625 
L 45.3125 34.515625 
L 45.796875 36.921875 
Q 45.90625 37.3125 45.953125 37.765625 
Q 46 38.234375 46 39.203125 
Q 46 43.5625 42.453125 45.96875 
Q 38.921875 48.390625 32.515625 48.390625 
Q 28.125 48.390625 23.5 47.265625 
Q 18.890625 46.140625 14.015625 43.890625 
L 15.578125 52.203125 
Q 20.65625 54.109375 25.515625 55.046875 
Q 30.375 56 34.90625 56 
Q 44.578125 56 49.625 51.796875 
Q 54.6875 47.609375 54.6875 39.59375 
Q 54.6875 37.984375 54.4375 35.8125 
Q 54.203125 33.640625 53.71875 31.203125 
z
M 44 27.484375 
L 35.015625 27.484375 
Q 23.96875 27.484375 18.671875 24.53125 
Q 13.375 21.578125 13.375 15.375 
Q 13.375 11.078125 16.078125 8.640625 
Q 18.796875 6.203125 23.578125 6.203125 
Q 30.90625 6.203125 36.375 11.453125 
Q 41.84375 16.703125 43.609375 25.484375 
z
" id="DejaVuSans-Oblique-97"/>
      <path d="M 7.171875 54.6875 
L 16.703125 54.6875 
L 24.703125 8.203125 
L 50.875 54.6875 
L 60.40625 54.6875 
L 29.296875 0 
L 17.1875 0 
z
" id="DejaVuSans-Oblique-118"/>
      <path d="M 59.625 54.6875 
L 50.296875 6.78125 
Q 47.609375 -7.125 40.015625 -13.953125 
Q 32.421875 -20.796875 19.578125 -20.796875 
Q 14.84375 -20.796875 10.78125 -20.09375 
Q 6.734375 -19.390625 3.21875 -17.921875 
L 4.890625 -9.1875 
Q 8.203125 -11.328125 11.90625 -12.34375 
Q 15.625 -13.375 19.828125 -13.375 
Q 28.375 -13.375 33.859375 -8.703125 
Q 39.359375 -4.046875 41.109375 4.6875 
L 41.890625 8.796875 
Q 38.140625 4.5 33.15625 2.25 
Q 28.171875 0 22.40625 0 
Q 14.109375 0 9.34375 5.484375 
Q 4.59375 10.984375 4.59375 20.609375 
Q 4.59375 28.171875 7.46875 35.421875 
Q 10.359375 42.671875 15.578125 48.296875 
Q 19.046875 52 23.65625 54 
Q 28.265625 56 33.296875 56 
Q 38.8125 56 42.90625 53.4375 
Q 47.015625 50.875 49.03125 46.1875 
L 50.59375 54.6875 
z
M 46.09375 34.625 
Q 46.09375 41.265625 42.96875 44.875 
Q 39.84375 48.484375 34.078125 48.484375 
Q 30.515625 48.484375 27.296875 47.0625 
Q 24.078125 45.65625 21.78125 43.109375 
Q 18.0625 38.921875 15.984375 33.234375 
Q 13.921875 27.546875 13.921875 21.484375 
Q 13.921875 14.75 17.0625 11.125 
Q 20.21875 7.515625 26.125 7.515625 
Q 34.671875 7.515625 40.375 15.25 
Q 46.09375 23 46.09375 34.625 
z
" id="DejaVuSans-Oblique-103"/>
      <path d="M 10.59375 45.40625 
L 73.1875 45.40625 
L 73.1875 37.203125 
L 10.59375 37.203125 
z
M 10.59375 25.484375 
L 73.1875 25.484375 
L 73.1875 17.1875 
L 10.59375 17.1875 
z
" id="DejaVuSans-61"/>
      <path d="M 37.796875 64.3125 
L 12.890625 25.390625 
L 37.796875 25.390625 
z
M 35.203125 72.90625 
L 47.609375 72.90625 
L 47.609375 25.390625 
L 58.015625 25.390625 
L 58.015625 17.1875 
L 47.609375 17.1875 
L 47.609375 0 
L 37.796875 0 
L 37.796875 17.1875 
L 4.890625 17.1875 
L 4.890625 26.703125 
z
" id="DejaVuSans-52"/>
     </defs>
     <use transform="translate(0 0.015625)" xlink:href="#DejaVuSans-114"/>
     <use transform="translate(41.113281 0.015625)" xlink:href="#DejaVuSans-101"/>
     <use transform="translate(102.636719 0.015625)" xlink:href="#DejaVuSans-102"/>
     <use transform="translate(137.841797 0.015625)" xlink:href="#DejaVuSans-58"/>
     <use transform="translate(171.533203 0.015625)" xlink:href="#DejaVuSans-32"/>
     <use transform="translate(203.320312 0.015625)" xlink:href="#DejaVuSans-934"/>
     <use transform="translate(282.988281 -16.390625)scale(0.7)" xlink:href="#DejaVuSans-Oblique-97"/>
     <use transform="translate(325.883789 -16.390625)scale(0.7)" xlink:href="#DejaVuSans-Oblique-118"/>
     <use transform="translate(367.30957 -16.390625)scale(0.7)" xlink:href="#DejaVuSans-Oblique-103"/>
     <use transform="translate(433.959961 0.015625)" xlink:href="#DejaVuSans-61"/>
     <use transform="translate(537.231445 0.015625)" xlink:href="#DejaVuSans-53"/>
     <use transform="translate(600.854492 0.015625)" xlink:href="#DejaVuSans-46"/>
     <use transform="translate(632.641602 0.015625)" xlink:href="#DejaVuSans-52"/>
     <use transform="translate(696.264648 0.015625)" xlink:href="#DejaVuSans-50"/>
    </g>
    <!-- d: $\Phi_{avg}=$5.38 -->
    <g transform="translate(211.652957 57.864)scale(0.18 -0.18)">
     <defs>
      <path d="M 45.40625 46.390625 
L 45.40625 75.984375 
L 54.390625 75.984375 
L 54.390625 0 
L 45.40625 0 
L 45.40625 8.203125 
Q 42.578125 3.328125 38.25 0.953125 
Q 33.9375 -1.421875 27.875 -1.421875 
Q 17.96875 -1.421875 11.734375 6.484375 
Q 5.515625 14.40625 5.515625 27.296875 
Q 5.515625 40.1875 11.734375 48.09375 
Q 17.96875 56 27.875 56 
Q 33.9375 56 38.25 53.625 
Q 42.578125 51.265625 45.40625 46.390625 
z
M 14.796875 27.296875 
Q 14.796875 17.390625 18.875 11.75 
Q 22.953125 6.109375 30.078125 6.109375 
Q 37.203125 6.109375 41.296875 11.75 
Q 45.40625 17.390625 45.40625 27.296875 
Q 45.40625 37.203125 41.296875 42.84375 
Q 37.203125 48.484375 30.078125 48.484375 
Q 22.953125 48.484375 18.875 42.84375 
Q 14.796875 37.203125 14.796875 27.296875 
z
" id="DejaVuSans-100"/>
      <path d="M 31.78125 34.625 
Q 24.75 34.625 20.71875 30.859375 
Q 16.703125 27.09375 16.703125 20.515625 
Q 16.703125 13.921875 20.71875 10.15625 
Q 24.75 6.390625 31.78125 6.390625 
Q 38.8125 6.390625 42.859375 10.171875 
Q 46.921875 13.96875 46.921875 20.515625 
Q 46.921875 27.09375 42.890625 30.859375 
Q 38.875 34.625 31.78125 34.625 
z
M 21.921875 38.8125 
Q 15.578125 40.375 12.03125 44.71875 
Q 8.5 49.078125 8.5 55.328125 
Q 8.5 64.0625 14.71875 69.140625 
Q 20.953125 74.21875 31.78125 74.21875 
Q 42.671875 74.21875 48.875 69.140625 
Q 55.078125 64.0625 55.078125 55.328125 
Q 55.078125 49.078125 51.53125 44.71875 
Q 48 40.375 41.703125 38.8125 
Q 48.828125 37.15625 52.796875 32.3125 
Q 56.78125 27.484375 56.78125 20.515625 
Q 56.78125 9.90625 50.3125 4.234375 
Q 43.84375 -1.421875 31.78125 -1.421875 
Q 19.734375 -1.421875 13.25 4.234375 
Q 6.78125 9.90625 6.78125 20.515625 
Q 6.78125 27.484375 10.78125 32.3125 
Q 14.796875 37.15625 21.921875 38.8125 
z
M 18.3125 54.390625 
Q 18.3125 48.734375 21.84375 45.5625 
Q 25.390625 42.390625 31.78125 42.390625 
Q 38.140625 42.390625 41.71875 45.5625 
Q 45.3125 48.734375 45.3125 54.390625 
Q 45.3125 60.0625 41.71875 63.234375 
Q 38.140625 66.40625 31.78125 66.40625 
Q 25.390625 66.40625 21.84375 63.234375 
Q 18.3125 60.0625 18.3125 54.390625 
z
" id="DejaVuSans-56"/>
     </defs>
     <use transform="translate(0 0.015625)" xlink:href="#DejaVuSans-100"/>
     <use transform="translate(63.476562 0.015625)" xlink:href="#DejaVuSans-58"/>
     <use transform="translate(97.167969 0.015625)" xlink:href="#DejaVuSans-32"/>
     <use transform="translate(128.955078 0.015625)" xlink:href="#DejaVuSans-934"/>
     <use transform="translate(208.623047 -16.390625)scale(0.7)" xlink:href="#DejaVuSans-Oblique-97"/>
     <use transform="translate(251.518555 -16.390625)scale(0.7)" xlink:href="#DejaVuSans-Oblique-118"/>
     <use transform="translate(292.944336 -16.390625)scale(0.7)" xlink:href="#DejaVuSans-Oblique-103"/>
     <use transform="translate(359.594727 0.015625)" xlink:href="#DejaVuSans-61"/>
     <use transform="translate(462.866211 0.015625)" xlink:href="#DejaVuSans-53"/>
     <use transform="translate(526.489258 0.015625)" xlink:href="#DejaVuSans-46"/>
     <use transform="translate(558.276367 0.015625)" xlink:href="#DejaVuSans-51"/>
     <use transform="translate(621.899414 0.015625)" xlink:href="#DejaVuSans-56"/>
    </g>
   </g>
   <g id="text_17">
    <!-- pandemic -->
    <g transform="translate(296.656606 1004.206913)scale(0.13 -0.13)">
     <defs>
      <path d="M 18.109375 8.203125 
L 18.109375 -20.796875 
L 9.078125 -20.796875 
L 9.078125 54.6875 
L 18.109375 54.6875 
L 18.109375 46.390625 
Q 20.953125 51.265625 25.265625 53.625 
Q 29.59375 56 35.59375 56 
Q 45.5625 56 51.78125 48.09375 
Q 58.015625 40.1875 58.015625 27.296875 
Q 58.015625 14.40625 51.78125 6.484375 
Q 45.5625 -1.421875 35.59375 -1.421875 
Q 29.59375 -1.421875 25.265625 0.953125 
Q 20.953125 3.328125 18.109375 8.203125 
z
M 48.6875 27.296875 
Q 48.6875 37.203125 44.609375 42.84375 
Q 40.53125 48.484375 33.40625 48.484375 
Q 26.265625 48.484375 22.1875 42.84375 
Q 18.109375 37.203125 18.109375 27.296875 
Q 18.109375 17.390625 22.1875 11.75 
Q 26.265625 6.109375 33.40625 6.109375 
Q 40.53125 6.109375 44.609375 11.75 
Q 48.6875 17.390625 48.6875 27.296875 
z
" id="DejaVuSans-112"/>
      <path d="M 52 44.1875 
Q 55.375 50.25 60.0625 53.125 
Q 64.75 56 71.09375 56 
Q 79.640625 56 84.28125 50.015625 
Q 88.921875 44.046875 88.921875 33.015625 
L 88.921875 0 
L 79.890625 0 
L 79.890625 32.71875 
Q 79.890625 40.578125 77.09375 44.375 
Q 74.3125 48.1875 68.609375 48.1875 
Q 61.625 48.1875 57.5625 43.546875 
Q 53.515625 38.921875 53.515625 30.90625 
L 53.515625 0 
L 44.484375 0 
L 44.484375 32.71875 
Q 44.484375 40.625 41.703125 44.40625 
Q 38.921875 48.1875 33.109375 48.1875 
Q 26.21875 48.1875 22.15625 43.53125 
Q 18.109375 38.875 18.109375 30.90625 
L 18.109375 0 
L 9.078125 0 
L 9.078125 54.6875 
L 18.109375 54.6875 
L 18.109375 46.1875 
Q 21.1875 51.21875 25.484375 53.609375 
Q 29.78125 56 35.6875 56 
Q 41.65625 56 45.828125 52.96875 
Q 50 49.953125 52 44.1875 
z
" id="DejaVuSans-109"/>
     </defs>
     <use xlink:href="#DejaVuSans-112"/>
     <use x="63.476562" xlink:href="#DejaVuSans-97"/>
     <use x="124.755859" xlink:href="#DejaVuSans-110"/>
     <use x="188.134766" xlink:href="#DejaVuSans-100"/>
     <use x="251.611328" xlink:href="#DejaVuSans-101"/>
     <use x="313.134766" xlink:href="#DejaVuSans-109"/>
     <use x="410.546875" xlink:href="#DejaVuSans-105"/>
     <use x="438.330078" xlink:href="#DejaVuSans-99"/>
    </g>
   </g>
   <g id="text_18">
    <!-- pretty -->
    <g transform="translate(210.823943 972.505139)scale(0.13 -0.13)">
     <defs>
      <path d="M 32.171875 -5.078125 
Q 28.375 -14.84375 24.75 -17.8125 
Q 21.140625 -20.796875 15.09375 -20.796875 
L 7.90625 -20.796875 
L 7.90625 -13.28125 
L 13.1875 -13.28125 
Q 16.890625 -13.28125 18.9375 -11.515625 
Q 21 -9.765625 23.484375 -3.21875 
L 25.09375 0.875 
L 2.984375 54.6875 
L 12.5 54.6875 
L 29.59375 11.921875 
L 46.6875 54.6875 
L 56.203125 54.6875 
z
" id="DejaVuSans-121"/>
     </defs>
     <use xlink:href="#DejaVuSans-112"/>
     <use x="63.476562" xlink:href="#DejaVuSans-114"/>
     <use x="102.339844" xlink:href="#DejaVuSans-101"/>
     <use x="163.863281" xlink:href="#DejaVuSans-116"/>
     <use x="203.072266" xlink:href="#DejaVuSans-116"/>
     <use x="242.28125" xlink:href="#DejaVuSans-121"/>
    </g>
   </g>
   <g id="text_19">
    <!-- shit -->
    <g transform="translate(296.977139 940.803365)scale(0.13 -0.13)">
     <use xlink:href="#DejaVuSans-115"/>
     <use x="52.099609" xlink:href="#DejaVuSans-104"/>
     <use x="115.478516" xlink:href="#DejaVuSans-105"/>
     <use x="143.261719" xlink:href="#DejaVuSans-116"/>
    </g>
   </g>
   <g id="text_20">
    <!-- like -->
    <g transform="translate(297.188477 909.101591)scale(0.13 -0.13)">
     <defs>
      <path d="M 9.421875 75.984375 
L 18.40625 75.984375 
L 18.40625 0 
L 9.421875 0 
z
" id="DejaVuSans-108"/>
     </defs>
     <use xlink:href="#DejaVuSans-108"/>
     <use x="27.783203" xlink:href="#DejaVuSans-105"/>
     <use x="55.566406" xlink:href="#DejaVuSans-107"/>
     <use x="109.851562" xlink:href="#DejaVuSans-101"/>
    </g>
   </g>
   <g id="text_21">
    <!-- play -->
    <g transform="translate(297.571406 877.399817)scale(0.13 -0.13)">
     <use xlink:href="#DejaVuSans-112"/>
     <use x="63.476562" xlink:href="#DejaVuSans-108"/>
     <use x="91.259766" xlink:href="#DejaVuSans-97"/>
     <use x="152.539062" xlink:href="#DejaVuSans-121"/>
    </g>
   </g>
   <g id="text_22">
    <!-- good -->
    <g transform="translate(297.747875 845.698042)scale(0.13 -0.13)">
     <defs>
      <path d="M 45.40625 27.984375 
Q 45.40625 37.75 41.375 43.109375 
Q 37.359375 48.484375 30.078125 48.484375 
Q 22.859375 48.484375 18.828125 43.109375 
Q 14.796875 37.75 14.796875 27.984375 
Q 14.796875 18.265625 18.828125 12.890625 
Q 22.859375 7.515625 30.078125 7.515625 
Q 37.359375 7.515625 41.375 12.890625 
Q 45.40625 18.265625 45.40625 27.984375 
z
M 54.390625 6.78125 
Q 54.390625 -7.171875 48.1875 -13.984375 
Q 42 -20.796875 29.203125 -20.796875 
Q 24.46875 -20.796875 20.265625 -20.09375 
Q 16.0625 -19.390625 12.109375 -17.921875 
L 12.109375 -9.1875 
Q 16.0625 -11.328125 19.921875 -12.34375 
Q 23.78125 -13.375 27.78125 -13.375 
Q 36.625 -13.375 41.015625 -8.765625 
Q 45.40625 -4.15625 45.40625 5.171875 
L 45.40625 9.625 
Q 42.625 4.78125 38.28125 2.390625 
Q 33.9375 0 27.875 0 
Q 17.828125 0 11.671875 7.65625 
Q 5.515625 15.328125 5.515625 27.984375 
Q 5.515625 40.671875 11.671875 48.328125 
Q 17.828125 56 27.875 56 
Q 33.9375 56 38.28125 53.609375 
Q 42.625 51.21875 45.40625 46.390625 
L 45.40625 54.6875 
L 54.390625 54.6875 
z
" id="DejaVuSans-103"/>
     </defs>
     <use xlink:href="#DejaVuSans-103"/>
     <use x="63.476562" xlink:href="#DejaVuSans-111"/>
     <use x="124.658203" xlink:href="#DejaVuSans-111"/>
     <use x="185.839844" xlink:href="#DejaVuSans-100"/>
    </g>
   </g>
   <g id="text_23">
    <!-- loses -->
    <g transform="translate(215.912404 813.996268)scale(0.13 -0.13)">
     <use xlink:href="#DejaVuSans-108"/>
     <use x="27.783203" xlink:href="#DejaVuSans-111"/>
     <use x="88.964844" xlink:href="#DejaVuSans-115"/>
     <use x="141.064453" xlink:href="#DejaVuSans-101"/>
     <use x="202.587891" xlink:href="#DejaVuSans-115"/>
    </g>
   </g>
   <g id="text_24">
    <!-- protest -->
    <g transform="translate(201.916054 782.294494)scale(0.13 -0.13)">
     <use xlink:href="#DejaVuSans-112"/>
     <use x="63.476562" xlink:href="#DejaVuSans-114"/>
     <use x="102.339844" xlink:href="#DejaVuSans-111"/>
     <use x="163.521484" xlink:href="#DejaVuSans-116"/>
     <use x="202.730469" xlink:href="#DejaVuSans-101"/>
     <use x="264.253906" xlink:href="#DejaVuSans-115"/>
     <use x="316.353516" xlink:href="#DejaVuSans-116"/>
    </g>
   </g>
   <g id="text_25">
    <!-- corruption -->
    <g transform="translate(181.110201 750.59272)scale(0.13 -0.13)">
     <defs>
      <path d="M 8.5 21.578125 
L 8.5 54.6875 
L 17.484375 54.6875 
L 17.484375 21.921875 
Q 17.484375 14.15625 20.5 10.265625 
Q 23.53125 6.390625 29.59375 6.390625 
Q 36.859375 6.390625 41.078125 11.03125 
Q 45.3125 15.671875 45.3125 23.6875 
L 45.3125 54.6875 
L 54.296875 54.6875 
L 54.296875 0 
L 45.3125 0 
L 45.3125 8.40625 
Q 42.046875 3.421875 37.71875 1 
Q 33.40625 -1.421875 27.6875 -1.421875 
Q 18.265625 -1.421875 13.375 4.4375 
Q 8.5 10.296875 8.5 21.578125 
z
M 31.109375 56 
z
" id="DejaVuSans-117"/>
     </defs>
     <use xlink:href="#DejaVuSans-99"/>
     <use x="54.980469" xlink:href="#DejaVuSans-111"/>
     <use x="116.162109" xlink:href="#DejaVuSans-114"/>
     <use x="155.525391" xlink:href="#DejaVuSans-114"/>
     <use x="196.638672" xlink:href="#DejaVuSans-117"/>
     <use x="260.017578" xlink:href="#DejaVuSans-112"/>
     <use x="323.494141" xlink:href="#DejaVuSans-116"/>
     <use x="362.703125" xlink:href="#DejaVuSans-105"/>
     <use x="390.486328" xlink:href="#DejaVuSans-111"/>
     <use x="451.667969" xlink:href="#DejaVuSans-110"/>
    </g>
   </g>
   <g id="text_26">
    <!-- nice -->
    <g transform="translate(299.164172 718.890946)scale(0.13 -0.13)">
     <use xlink:href="#DejaVuSans-110"/>
     <use x="63.378906" xlink:href="#DejaVuSans-105"/>
     <use x="91.162109" xlink:href="#DejaVuSans-99"/>
     <use x="146.142578" xlink:href="#DejaVuSans-101"/>
    </g>
   </g>
   <g id="text_27">
    <!-- orange -->
    <g transform="translate(300.089502 687.189171)scale(0.13 -0.13)">
     <use xlink:href="#DejaVuSans-111"/>
     <use x="61.181641" xlink:href="#DejaVuSans-114"/>
     <use x="102.294922" xlink:href="#DejaVuSans-97"/>
     <use x="163.574219" xlink:href="#DejaVuSans-110"/>
     <use x="226.953125" xlink:href="#DejaVuSans-103"/>
     <use x="290.429688" xlink:href="#DejaVuSans-101"/>
    </g>
   </g>
   <g id="text_28">
    <!-- bad -->
    <g transform="translate(222.155832 655.487397)scale(0.13 -0.13)">
     <defs>
      <path d="M 48.6875 27.296875 
Q 48.6875 37.203125 44.609375 42.84375 
Q 40.53125 48.484375 33.40625 48.484375 
Q 26.265625 48.484375 22.1875 42.84375 
Q 18.109375 37.203125 18.109375 27.296875 
Q 18.109375 17.390625 22.1875 11.75 
Q 26.265625 6.109375 33.40625 6.109375 
Q 40.53125 6.109375 44.609375 11.75 
Q 48.6875 17.390625 48.6875 27.296875 
z
M 18.109375 46.390625 
Q 20.953125 51.265625 25.265625 53.625 
Q 29.59375 56 35.59375 56 
Q 45.5625 56 51.78125 48.09375 
Q 58.015625 40.1875 58.015625 27.296875 
Q 58.015625 14.40625 51.78125 6.484375 
Q 45.5625 -1.421875 35.59375 -1.421875 
Q 29.59375 -1.421875 25.265625 0.953125 
Q 20.953125 3.328125 18.109375 8.203125 
L 18.109375 0 
L 9.078125 0 
L 9.078125 75.984375 
L 18.109375 75.984375 
z
" id="DejaVuSans-98"/>
     </defs>
     <use xlink:href="#DejaVuSans-98"/>
     <use x="63.476562" xlink:href="#DejaVuSans-97"/>
     <use x="124.755859" xlink:href="#DejaVuSans-100"/>
    </g>
   </g>
   <g id="text_29">
    <!-- never -->
    <g transform="translate(208.114903 623.785623)scale(0.13 -0.13)">
     <defs>
      <path d="M 2.984375 54.6875 
L 12.5 54.6875 
L 29.59375 8.796875 
L 46.6875 54.6875 
L 56.203125 54.6875 
L 35.6875 0 
L 23.484375 0 
z
" id="DejaVuSans-118"/>
     </defs>
     <use xlink:href="#DejaVuSans-110"/>
     <use x="63.378906" xlink:href="#DejaVuSans-101"/>
     <use x="124.902344" xlink:href="#DejaVuSans-118"/>
     <use x="184.082031" xlink:href="#DejaVuSans-101"/>
     <use x="245.605469" xlink:href="#DejaVuSans-114"/>
    </g>
   </g>
   <g id="text_30">
    <!-- better -->
    <g transform="translate(205.142264 592.083849)scale(0.13 -0.13)">
     <use xlink:href="#DejaVuSans-98"/>
     <use x="63.476562" xlink:href="#DejaVuSans-101"/>
     <use x="125" xlink:href="#DejaVuSans-116"/>
     <use x="164.208984" xlink:href="#DejaVuSans-116"/>
     <use x="203.417969" xlink:href="#DejaVuSans-101"/>
     <use x="264.941406" xlink:href="#DejaVuSans-114"/>
    </g>
   </g>
   <g id="text_31">
    <!-- great -->
    <g transform="translate(209.983773 560.382075)scale(0.13 -0.13)">
     <use xlink:href="#DejaVuSans-103"/>
     <use x="63.476562" xlink:href="#DejaVuSans-114"/>
     <use x="102.339844" xlink:href="#DejaVuSans-101"/>
     <use x="163.863281" xlink:href="#DejaVuSans-97"/>
     <use x="225.142578" xlink:href="#DejaVuSans-116"/>
    </g>
   </g>
   <g id="text_32">
    <!-- arrested -->
    <g transform="translate(188.070559 528.6803)scale(0.13 -0.13)">
     <use xlink:href="#DejaVuSans-97"/>
     <use x="61.279297" xlink:href="#DejaVuSans-114"/>
     <use x="100.642578" xlink:href="#DejaVuSans-114"/>
     <use x="139.505859" xlink:href="#DejaVuSans-101"/>
     <use x="201.029297" xlink:href="#DejaVuSans-115"/>
     <use x="253.128906" xlink:href="#DejaVuSans-116"/>
     <use x="292.337891" xlink:href="#DejaVuSans-101"/>
     <use x="353.861328" xlink:href="#DejaVuSans-100"/>
    </g>
   </g>
   <g id="text_33">
    <!-- right -->
    <g transform="translate(306.113113 496.978526)scale(0.13 -0.13)">
     <use xlink:href="#DejaVuSans-114"/>
     <use x="41.113281" xlink:href="#DejaVuSans-105"/>
     <use x="68.896484" xlink:href="#DejaVuSans-103"/>
     <use x="132.373047" xlink:href="#DejaVuSans-104"/>
     <use x="195.751953" xlink:href="#DejaVuSans-116"/>
    </g>
   </g>
   <g id="text_34">
    <!-- money -->
    <g transform="translate(309.757154 465.276752)scale(0.13 -0.13)">
     <use xlink:href="#DejaVuSans-109"/>
     <use x="97.412109" xlink:href="#DejaVuSans-111"/>
     <use x="158.59375" xlink:href="#DejaVuSans-110"/>
     <use x="221.972656" xlink:href="#DejaVuSans-101"/>
     <use x="283.496094" xlink:href="#DejaVuSans-121"/>
    </g>
   </g>
   <g id="text_35">
    <!-- arrest -->
    <g transform="translate(194.795635 433.574978)scale(0.13 -0.13)">
     <use xlink:href="#DejaVuSans-97"/>
     <use x="61.279297" xlink:href="#DejaVuSans-114"/>
     <use x="100.642578" xlink:href="#DejaVuSans-114"/>
     <use x="139.505859" xlink:href="#DejaVuSans-101"/>
     <use x="201.029297" xlink:href="#DejaVuSans-115"/>
     <use x="253.128906" xlink:href="#DejaVuSans-116"/>
    </g>
   </g>
   <g id="text_36">
    <!-- tax -->
    <g transform="translate(210.437224 401.873204)scale(0.13 -0.13)">
     <defs>
      <path d="M 54.890625 54.6875 
L 35.109375 28.078125 
L 55.90625 0 
L 45.3125 0 
L 29.390625 21.484375 
L 13.484375 0 
L 2.875 0 
L 24.125 28.609375 
L 4.6875 54.6875 
L 15.28125 54.6875 
L 29.78125 35.203125 
L 44.28125 54.6875 
z
" id="DejaVuSans-120"/>
     </defs>
     <use xlink:href="#DejaVuSans-116"/>
     <use x="39.208984" xlink:href="#DejaVuSans-97"/>
     <use x="100.488281" xlink:href="#DejaVuSans-120"/>
    </g>
   </g>
   <g id="text_37">
    <!-- taxes -->
    <g transform="translate(196.030205 370.171429)scale(0.13 -0.13)">
     <use xlink:href="#DejaVuSans-116"/>
     <use x="39.208984" xlink:href="#DejaVuSans-97"/>
     <use x="100.488281" xlink:href="#DejaVuSans-120"/>
     <use x="156.542969" xlink:href="#DejaVuSans-101"/>
     <use x="218.066406" xlink:href="#DejaVuSans-115"/>
    </g>
   </g>
   <g id="text_38">
    <!-- party -->
    <g transform="translate(326.861338 338.469655)scale(0.13 -0.13)">
     <use xlink:href="#DejaVuSans-112"/>
     <use x="63.476562" xlink:href="#DejaVuSans-97"/>
     <use x="124.755859" xlink:href="#DejaVuSans-114"/>
     <use x="165.869141" xlink:href="#DejaVuSans-116"/>
     <use x="205.078125" xlink:href="#DejaVuSans-121"/>
    </g>
   </g>
   <g id="text_39">
    <!-- covid -->
    <g transform="translate(342.152196 306.767881)scale(0.13 -0.13)">
     <use xlink:href="#DejaVuSans-99"/>
     <use x="54.980469" xlink:href="#DejaVuSans-111"/>
     <use x="116.162109" xlink:href="#DejaVuSans-118"/>
     <use x="175.341797" xlink:href="#DejaVuSans-105"/>
     <use x="203.125" xlink:href="#DejaVuSans-100"/>
    </g>
   </g>
   <g id="text_40">
    <!-- crimes -->
    <g transform="translate(146.168592 275.066107)scale(0.13 -0.13)">
     <use xlink:href="#DejaVuSans-99"/>
     <use x="54.980469" xlink:href="#DejaVuSans-114"/>
     <use x="96.09375" xlink:href="#DejaVuSans-105"/>
     <use x="123.876953" xlink:href="#DejaVuSans-109"/>
     <use x="221.289062" xlink:href="#DejaVuSans-101"/>
     <use x="282.8125" xlink:href="#DejaVuSans-115"/>
    </g>
   </g>
   <g id="text_41">
    <!-- prison -->
    <g transform="translate(86.999154 243.364333)scale(0.13 -0.13)">
     <use xlink:href="#DejaVuSans-112"/>
     <use x="63.476562" xlink:href="#DejaVuSans-114"/>
     <use x="104.589844" xlink:href="#DejaVuSans-105"/>
     <use x="132.373047" xlink:href="#DejaVuSans-115"/>
     <use x="184.472656" xlink:href="#DejaVuSans-111"/>
     <use x="245.654297" xlink:href="#DejaVuSans-110"/>
    </g>
   </g>
   <g id="text_42">
    <!-- $\Sigma$ -->
    <g transform="translate(242.103258 179.960784)scale(0.13 -0.13)">
     <defs>
      <path d="M 21.140625 8.296875 
L 56.78125 8.296875 
L 56.78125 0 
L 9.8125 0 
L 9.8125 8.296875 
L 33.203125 38.765625 
L 9.8125 64.59375 
L 9.8125 72.90625 
L 55.90625 72.90625 
L 55.90625 64.59375 
L 21.140625 64.59375 
L 44.53125 38.96875 
z
" id="DejaVuSans-931"/>
     </defs>
     <use transform="translate(0 0.09375)" xlink:href="#DejaVuSans-931"/>
    </g>
   </g>
   <g id="text_43">
    <!-- - -->
    <g transform="translate(351.017815 132.408123)scale(0.13 -0.13)">
     <defs>
      <path d="M 44.09375 -0.34375 
L 39.703125 -0.34375 
L 20.453125 18.890625 
L 26.3125 24.75 
L 37.75 13.328125 
L 37.75 72.90625 
L 46.046875 72.90625 
L 46.046875 13.328125 
L 57.375 24.75 
L 63.234375 18.890625 
z
" id="DejaVuSans-8595"/>
     </defs>
     <use xlink:href="#DejaVuSans-45"/>
     <use x="36.083984" xlink:href="#DejaVuSans-8595"/>
    </g>
   </g>
   <g id="text_44">
    <!-- - -->
    <g transform="translate(173.653149 132.408123)scale(0.13 -0.13)">
     <defs>
      <path d="M 39.703125 73.25 
L 44.09375 73.25 
L 63.234375 54 
L 57.375 48.140625 
L 46.046875 59.578125 
L 46.046875 0 
L 37.75 0 
L 37.75 59.578125 
L 26.3125 48.140625 
L 20.453125 54 
z
" id="DejaVuSans-8593"/>
     </defs>
     <use xlink:href="#DejaVuSans-45"/>
     <use x="36.083984" xlink:href="#DejaVuSans-8593"/>
    </g>
   </g>
   <g id="text_45">
    <!-- + -->
    <g transform="translate(105.386029 84.855462)scale(0.13 -0.13)">
     <defs>
      <path d="M 46 62.703125 
L 46 35.5 
L 73.1875 35.5 
L 73.1875 27.203125 
L 46 27.203125 
L 46 0 
L 37.796875 0 
L 37.796875 27.203125 
L 10.59375 27.203125 
L 10.59375 35.5 
L 37.796875 35.5 
L 37.796875 62.703125 
z
" id="DejaVuSans-43"/>
     </defs>
     <use xlink:href="#DejaVuSans-43"/>
     <use x="83.789062" xlink:href="#DejaVuSans-8595"/>
    </g>
   </g>
   <g id="text_46">
    <!-- + -->
    <g transform="translate(407.433028 84.855462)scale(0.13 -0.13)">
     <use xlink:href="#DejaVuSans-43"/>
     <use x="83.789062" xlink:href="#DejaVuSans-8593"/>
    </g>
   </g>
   <g id="patch_12">
    <path clip-path="url(#p0403eac006)" d="M 273.392957 1013.300436 
L 292.397778 1013.300436 
L 292.397778 987.939016 
L 273.392957 987.939016 
z
" style="fill:#c4cafc;stroke:#000000;stroke-linejoin:miter;stroke-width:0.25;"/>
   </g>
   <g id="patch_13">
    <path clip-path="url(#p0403eac006)" d="M 273.392957 981.598661 
L 254.273708 981.598661 
L 254.273708 956.237242 
L 273.392957 956.237242 
z
" style="fill:#fdffd2;stroke:#000000;stroke-linejoin:miter;stroke-width:0.25;"/>
   </g>
   <g id="patch_14">
    <path clip-path="url(#p0403eac006)" d="M 273.392957 949.896887 
L 292.718311 949.896887 
L 292.718311 924.535468 
L 273.392957 924.535468 
z
" style="fill:#c4cafc;stroke:#000000;stroke-linejoin:miter;stroke-width:0.25;"/>
   </g>
   <g id="patch_15">
    <path clip-path="url(#p0403eac006)" d="M 273.392957 918.195113 
L 292.92965 918.195113 
L 292.92965 892.833694 
L 273.392957 892.833694 
z
" style="fill:#ffff80;stroke:#000000;stroke-linejoin:miter;stroke-width:0.25;"/>
   </g>
   <g id="patch_16">
    <path clip-path="url(#p0403eac006)" d="M 273.392957 886.493339 
L 293.312578 886.493339 
L 293.312578 861.131919 
L 273.392957 861.131919 
z
" style="fill:#ffff80;stroke:#000000;stroke-linejoin:miter;stroke-width:0.25;"/>
   </g>
   <g id="patch_17">
    <path clip-path="url(#p0403eac006)" d="M 273.392957 854.791565 
L 293.489047 854.791565 
L 293.489047 829.430145 
L 273.392957 829.430145 
z
" style="fill:#ffff80;stroke:#000000;stroke-linejoin:miter;stroke-width:0.25;"/>
   </g>
   <g id="patch_18">
    <path clip-path="url(#p0403eac006)" d="M 273.392957 823.08979 
L 253.280606 823.08979 
L 253.280606 797.728371 
L 273.392957 797.728371 
z
" style="fill:#2f7cce;stroke:#000000;stroke-linejoin:miter;stroke-width:0.25;"/>
   </g>
   <g id="patch_19">
    <path clip-path="url(#p0403eac006)" d="M 273.392957 791.388016 
L 252.398006 791.388016 
L 252.398006 766.026597 
L 273.392957 766.026597 
z
" style="fill:#2f7cce;stroke:#000000;stroke-linejoin:miter;stroke-width:0.25;"/>
   </g>
   <g id="patch_20">
    <path clip-path="url(#p0403eac006)" d="M 273.392957 759.686242 
L 252.325122 759.686242 
L 252.325122 734.324823 
L 273.392957 734.324823 
z
" style="fill:#2f7cce;stroke:#000000;stroke-linejoin:miter;stroke-width:0.25;"/>
   </g>
   <g id="patch_21">
    <path clip-path="url(#p0403eac006)" d="M 273.392957 727.984468 
L 294.905344 727.984468 
L 294.905344 702.623048 
L 273.392957 702.623048 
z
" style="fill:#ffff80;stroke:#000000;stroke-linejoin:miter;stroke-width:0.25;"/>
   </g>
   <g id="patch_22">
    <path clip-path="url(#p0403eac006)" d="M 273.392957 696.282694 
L 295.830675 696.282694 
L 295.830675 670.921274 
L 273.392957 670.921274 
z
" style="fill:#ffff80;stroke:#000000;stroke-linejoin:miter;stroke-width:0.25;"/>
   </g>
   <g id="patch_23">
    <path clip-path="url(#p0403eac006)" d="M 273.392957 664.580919 
L 250.887159 664.580919 
L 250.887159 639.2195 
L 273.392957 639.2195 
z
" style="fill:#2f7cce;stroke:#000000;stroke-linejoin:miter;stroke-width:0.25;"/>
   </g>
   <g id="patch_24">
    <path clip-path="url(#p0403eac006)" d="M 273.392957 632.879145 
L 249.649199 632.879145 
L 249.649199 607.517726 
L 273.392957 607.517726 
z
" style="fill:#2f7cce;stroke:#000000;stroke-linejoin:miter;stroke-width:0.25;"/>
   </g>
   <g id="patch_25">
    <path clip-path="url(#p0403eac006)" d="M 273.392957 601.177371 
L 249.189217 601.177371 
L 249.189217 575.815952 
L 273.392957 575.815952 
z
" style="fill:#fdffd2;stroke:#000000;stroke-linejoin:miter;stroke-width:0.25;"/>
   </g>
   <g id="patch_26">
    <path clip-path="url(#p0403eac006)" d="M 273.392957 569.475597 
L 248.609319 569.475597 
L 248.609319 544.114177 
L 273.392957 544.114177 
z
" style="fill:#fdffd2;stroke:#000000;stroke-linejoin:miter;stroke-width:0.25;"/>
   </g>
   <g id="patch_27">
    <path clip-path="url(#p0403eac006)" d="M 273.392957 537.773823 
L 246.584074 537.773823 
L 246.584074 512.412403 
L 273.392957 512.412403 
z
" style="fill:#2f7cce;stroke:#000000;stroke-linejoin:miter;stroke-width:0.25;"/>
   </g>
   <g id="patch_28">
    <path clip-path="url(#p0403eac006)" d="M 273.392957 506.072048 
L 301.854285 506.072048 
L 301.854285 480.710629 
L 273.392957 480.710629 
z
" style="fill:#ffff80;stroke:#000000;stroke-linejoin:miter;stroke-width:0.25;"/>
   </g>
   <g id="patch_29">
    <path clip-path="url(#p0403eac006)" d="M 273.392957 474.370274 
L 305.498327 474.370274 
L 305.498327 449.008855 
L 273.392957 449.008855 
z
" style="fill:#ffff80;stroke:#000000;stroke-linejoin:miter;stroke-width:0.25;"/>
   </g>
   <g id="patch_30">
    <path clip-path="url(#p0403eac006)" d="M 273.392957 442.6685 
L 237.057119 442.6685 
L 237.057119 417.307081 
L 273.392957 417.307081 
z
" style="fill:#2f7cce;stroke:#000000;stroke-linejoin:miter;stroke-width:0.25;"/>
   </g>
   <g id="patch_31">
    <path clip-path="url(#p0403eac006)" d="M 273.392957 410.966726 
L 235.453396 410.966726 
L 235.453396 385.605306 
L 273.392957 385.605306 
z
" style="fill:#2f7cce;stroke:#000000;stroke-linejoin:miter;stroke-width:0.25;"/>
   </g>
   <g id="patch_32">
    <path clip-path="url(#p0403eac006)" d="M 273.392957 379.264952 
L 235.411376 379.264952 
L 235.411376 353.903532 
L 273.392957 353.903532 
z
" style="fill:#2f7cce;stroke:#000000;stroke-linejoin:miter;stroke-width:0.25;"/>
   </g>
   <g id="patch_33">
    <path clip-path="url(#p0403eac006)" d="M 273.392957 347.563177 
L 322.602511 347.563177 
L 322.602511 322.201758 
L 273.392957 322.201758 
z
" style="fill:#ffff80;stroke:#000000;stroke-linejoin:miter;stroke-width:0.25;"/>
   </g>
   <g id="patch_34">
    <path clip-path="url(#p0403eac006)" d="M 273.392957 315.861403 
L 337.893369 315.861403 
L 337.893369 290.499984 
L 273.392957 290.499984 
z
" style="fill:#c4cafc;stroke:#000000;stroke-linejoin:miter;stroke-width:0.25;"/>
   </g>
   <g id="patch_35">
    <path clip-path="url(#p0403eac006)" d="M 273.392957 284.159629 
L 193.965232 284.159629 
L 193.965232 258.79821 
L 273.392957 258.79821 
z
" style="fill:#2f7cce;stroke:#000000;stroke-linejoin:miter;stroke-width:0.25;"/>
   </g>
   <g id="patch_36">
    <path clip-path="url(#p0403eac006)" d="M 273.392957 252.457855 
L 131.432044 252.457855 
L 131.432044 227.096435 
L 273.392957 227.096435 
z
" style="fill:#2f7cce;stroke:#000000;stroke-linejoin:miter;stroke-width:0.25;"/>
   </g>
   <g id="patch_37">
    <path clip-path="url(#p0403eac006)" d="M 273.392957 1013.300436 
L 273.392957 1013.300436 
L 273.392957 987.939016 
L 273.392957 987.939016 
z
" style="fill:#9e75b7;stroke:#000000;stroke-linejoin:miter;stroke-width:0.25;"/>
   </g>
   <g id="patch_38">
    <path clip-path="url(#p0403eac006)" d="M 273.392957 981.598661 
L 273.392957 981.598661 
L 273.392957 956.237242 
L 273.392957 956.237242 
z
" style="fill:#9e75b7;stroke:#000000;stroke-linejoin:miter;stroke-width:0.25;"/>
   </g>
   <g id="patch_39">
    <path clip-path="url(#p0403eac006)" d="M 273.392957 949.896887 
L 273.392957 949.896887 
L 273.392957 924.535468 
L 273.392957 924.535468 
z
" style="fill:#9e75b7;stroke:#000000;stroke-linejoin:miter;stroke-width:0.25;"/>
   </g>
   <g id="patch_40">
    <path clip-path="url(#p0403eac006)" d="M 273.392957 918.195113 
L 273.392957 918.195113 
L 273.392957 892.833694 
L 273.392957 892.833694 
z
" style="fill:#9e75b7;stroke:#000000;stroke-linejoin:miter;stroke-width:0.25;"/>
   </g>
   <g id="patch_41">
    <path clip-path="url(#p0403eac006)" d="M 273.392957 886.493339 
L 273.392957 886.493339 
L 273.392957 861.131919 
L 273.392957 861.131919 
z
" style="fill:#9e75b7;stroke:#000000;stroke-linejoin:miter;stroke-width:0.25;"/>
   </g>
   <g id="patch_42">
    <path clip-path="url(#p0403eac006)" d="M 273.392957 854.791565 
L 273.392957 854.791565 
L 273.392957 829.430145 
L 273.392957 829.430145 
z
" style="fill:#9e75b7;stroke:#000000;stroke-linejoin:miter;stroke-width:0.25;"/>
   </g>
   <g id="patch_43">
    <path clip-path="url(#p0403eac006)" d="M 273.392957 823.08979 
L 273.392957 823.08979 
L 273.392957 797.728371 
L 273.392957 797.728371 
z
" style="fill:#9e75b7;stroke:#000000;stroke-linejoin:miter;stroke-width:0.25;"/>
   </g>
   <g id="patch_44">
    <path clip-path="url(#p0403eac006)" d="M 273.392957 791.388016 
L 273.392957 791.388016 
L 273.392957 766.026597 
L 273.392957 766.026597 
z
" style="fill:#9e75b7;stroke:#000000;stroke-linejoin:miter;stroke-width:0.25;"/>
   </g>
   <g id="patch_45">
    <path clip-path="url(#p0403eac006)" d="M 273.392957 759.686242 
L 273.392957 759.686242 
L 273.392957 734.324823 
L 273.392957 734.324823 
z
" style="fill:#9e75b7;stroke:#000000;stroke-linejoin:miter;stroke-width:0.25;"/>
   </g>
   <g id="patch_46">
    <path clip-path="url(#p0403eac006)" d="M 273.392957 727.984468 
L 273.392957 727.984468 
L 273.392957 702.623048 
L 273.392957 702.623048 
z
" style="fill:#9e75b7;stroke:#000000;stroke-linejoin:miter;stroke-width:0.25;"/>
   </g>
   <g id="patch_47">
    <path clip-path="url(#p0403eac006)" d="M 273.392957 696.282694 
L 273.392957 696.282694 
L 273.392957 670.921274 
L 273.392957 670.921274 
z
" style="fill:#9e75b7;stroke:#000000;stroke-linejoin:miter;stroke-width:0.25;"/>
   </g>
   <g id="patch_48">
    <path clip-path="url(#p0403eac006)" d="M 273.392957 664.580919 
L 273.392957 664.580919 
L 273.392957 639.2195 
L 273.392957 639.2195 
z
" style="fill:#9e75b7;stroke:#000000;stroke-linejoin:miter;stroke-width:0.25;"/>
   </g>
   <g id="patch_49">
    <path clip-path="url(#p0403eac006)" d="M 273.392957 632.879145 
L 273.392957 632.879145 
L 273.392957 607.517726 
L 273.392957 607.517726 
z
" style="fill:#9e75b7;stroke:#000000;stroke-linejoin:miter;stroke-width:0.25;"/>
   </g>
   <g id="patch_50">
    <path clip-path="url(#p0403eac006)" d="M 273.392957 601.177371 
L 273.392957 601.177371 
L 273.392957 575.815952 
L 273.392957 575.815952 
z
" style="fill:#9e75b7;stroke:#000000;stroke-linejoin:miter;stroke-width:0.25;"/>
   </g>
   <g id="patch_51">
    <path clip-path="url(#p0403eac006)" d="M 273.392957 569.475597 
L 273.392957 569.475597 
L 273.392957 544.114177 
L 273.392957 544.114177 
z
" style="fill:#9e75b7;stroke:#000000;stroke-linejoin:miter;stroke-width:0.25;"/>
   </g>
   <g id="patch_52">
    <path clip-path="url(#p0403eac006)" d="M 273.392957 537.773823 
L 273.392957 537.773823 
L 273.392957 512.412403 
L 273.392957 512.412403 
z
" style="fill:#9e75b7;stroke:#000000;stroke-linejoin:miter;stroke-width:0.25;"/>
   </g>
   <g id="patch_53">
    <path clip-path="url(#p0403eac006)" d="M 273.392957 506.072048 
L 273.392957 506.072048 
L 273.392957 480.710629 
L 273.392957 480.710629 
z
" style="fill:#9e75b7;stroke:#000000;stroke-linejoin:miter;stroke-width:0.25;"/>
   </g>
   <g id="patch_54">
    <path clip-path="url(#p0403eac006)" d="M 273.392957 474.370274 
L 273.392957 474.370274 
L 273.392957 449.008855 
L 273.392957 449.008855 
z
" style="fill:#9e75b7;stroke:#000000;stroke-linejoin:miter;stroke-width:0.25;"/>
   </g>
   <g id="patch_55">
    <path clip-path="url(#p0403eac006)" d="M 273.392957 442.6685 
L 273.392957 442.6685 
L 273.392957 417.307081 
L 273.392957 417.307081 
z
" style="fill:#9e75b7;stroke:#000000;stroke-linejoin:miter;stroke-width:0.25;"/>
   </g>
   <g id="patch_56">
    <path clip-path="url(#p0403eac006)" d="M 273.392957 410.966726 
L 273.392957 410.966726 
L 273.392957 385.605306 
L 273.392957 385.605306 
z
" style="fill:#9e75b7;stroke:#000000;stroke-linejoin:miter;stroke-width:0.25;"/>
   </g>
   <g id="patch_57">
    <path clip-path="url(#p0403eac006)" d="M 273.392957 379.264952 
L 273.392957 379.264952 
L 273.392957 353.903532 
L 273.392957 353.903532 
z
" style="fill:#9e75b7;stroke:#000000;stroke-linejoin:miter;stroke-width:0.25;"/>
   </g>
   <g id="patch_58">
    <path clip-path="url(#p0403eac006)" d="M 273.392957 347.563177 
L 273.392957 347.563177 
L 273.392957 322.201758 
L 273.392957 322.201758 
z
" style="fill:#9e75b7;stroke:#000000;stroke-linejoin:miter;stroke-width:0.25;"/>
   </g>
   <g id="patch_59">
    <path clip-path="url(#p0403eac006)" d="M 273.392957 315.861403 
L 273.392957 315.861403 
L 273.392957 290.499984 
L 273.392957 290.499984 
z
" style="fill:#9e75b7;stroke:#000000;stroke-linejoin:miter;stroke-width:0.25;"/>
   </g>
   <g id="patch_60">
    <path clip-path="url(#p0403eac006)" d="M 273.392957 284.159629 
L 273.392957 284.159629 
L 273.392957 258.79821 
L 273.392957 258.79821 
z
" style="fill:#9e75b7;stroke:#000000;stroke-linejoin:miter;stroke-width:0.25;"/>
   </g>
   <g id="patch_61">
    <path clip-path="url(#p0403eac006)" d="M 273.392957 252.457855 
L 273.392957 252.457855 
L 273.392957 227.096435 
L 273.392957 227.096435 
z
" style="fill:#9e75b7;stroke:#000000;stroke-linejoin:miter;stroke-width:0.25;"/>
   </g>
   <g id="patch_62">
    <path clip-path="url(#p0403eac006)" d="M 292.397778 1013.300436 
L 292.397778 1013.300436 
L 292.397778 987.939016 
L 292.397778 987.939016 
z
" style="fill:#c4cafc;opacity:0.35;stroke:#000000;stroke-linejoin:miter;stroke-width:0.25;"/>
   </g>
   <g id="patch_63">
    <path clip-path="url(#p0403eac006)" d="M 254.273708 981.598661 
L 254.273708 981.598661 
L 254.273708 956.237242 
L 254.273708 956.237242 
z
" style="fill:#fdffd2;opacity:0.35;stroke:#000000;stroke-linejoin:miter;stroke-width:0.25;"/>
   </g>
   <g id="patch_64">
    <path clip-path="url(#p0403eac006)" d="M 292.718311 949.896887 
L 292.718311 949.896887 
L 292.718311 924.535468 
L 292.718311 924.535468 
z
" style="fill:#c4cafc;opacity:0.35;stroke:#000000;stroke-linejoin:miter;stroke-width:0.25;"/>
   </g>
   <g id="patch_65">
    <path clip-path="url(#p0403eac006)" d="M 292.92965 918.195113 
L 292.92965 918.195113 
L 292.92965 892.833694 
L 292.92965 892.833694 
z
" style="fill:#ffff80;opacity:0.35;stroke:#000000;stroke-linejoin:miter;stroke-width:0.25;"/>
   </g>
   <g id="patch_66">
    <path clip-path="url(#p0403eac006)" d="M 293.312578 886.493339 
L 293.312578 886.493339 
L 293.312578 861.131919 
L 293.312578 861.131919 
z
" style="fill:#ffff80;opacity:0.35;stroke:#000000;stroke-linejoin:miter;stroke-width:0.25;"/>
   </g>
   <g id="patch_67">
    <path clip-path="url(#p0403eac006)" d="M 293.489047 854.791565 
L 293.489047 854.791565 
L 293.489047 829.430145 
L 293.489047 829.430145 
z
" style="fill:#ffff80;opacity:0.35;stroke:#000000;stroke-linejoin:miter;stroke-width:0.25;"/>
   </g>
   <g id="patch_68">
    <path clip-path="url(#p0403eac006)" d="M 253.280606 823.08979 
L 253.280606 823.08979 
L 253.280606 797.728371 
L 253.280606 797.728371 
z
" style="fill:#2f7cce;opacity:0.35;stroke:#000000;stroke-linejoin:miter;stroke-width:0.25;"/>
   </g>
   <g id="patch_69">
    <path clip-path="url(#p0403eac006)" d="M 252.398006 791.388016 
L 252.398006 791.388016 
L 252.398006 766.026597 
L 252.398006 766.026597 
z
" style="fill:#2f7cce;opacity:0.35;stroke:#000000;stroke-linejoin:miter;stroke-width:0.25;"/>
   </g>
   <g id="patch_70">
    <path clip-path="url(#p0403eac006)" d="M 252.325122 759.686242 
L 252.325122 759.686242 
L 252.325122 734.324823 
L 252.325122 734.324823 
z
" style="fill:#2f7cce;opacity:0.35;stroke:#000000;stroke-linejoin:miter;stroke-width:0.25;"/>
   </g>
   <g id="patch_71">
    <path clip-path="url(#p0403eac006)" d="M 294.905344 727.984468 
L 294.905344 727.984468 
L 294.905344 702.623048 
L 294.905344 702.623048 
z
" style="fill:#ffff80;opacity:0.35;stroke:#000000;stroke-linejoin:miter;stroke-width:0.25;"/>
   </g>
   <g id="patch_72">
    <path clip-path="url(#p0403eac006)" d="M 295.830675 696.282694 
L 295.830675 696.282694 
L 295.830675 670.921274 
L 295.830675 670.921274 
z
" style="fill:#ffff80;opacity:0.35;stroke:#000000;stroke-linejoin:miter;stroke-width:0.25;"/>
   </g>
   <g id="patch_73">
    <path clip-path="url(#p0403eac006)" d="M 250.887159 664.580919 
L 250.887159 664.580919 
L 250.887159 639.2195 
L 250.887159 639.2195 
z
" style="fill:#2f7cce;opacity:0.35;stroke:#000000;stroke-linejoin:miter;stroke-width:0.25;"/>
   </g>
   <g id="patch_74">
    <path clip-path="url(#p0403eac006)" d="M 249.649199 632.879145 
L 249.649199 632.879145 
L 249.649199 607.517726 
L 249.649199 607.517726 
z
" style="fill:#2f7cce;opacity:0.35;stroke:#000000;stroke-linejoin:miter;stroke-width:0.25;"/>
   </g>
   <g id="patch_75">
    <path clip-path="url(#p0403eac006)" d="M 249.189217 601.177371 
L 249.189217 601.177371 
L 249.189217 575.815952 
L 249.189217 575.815952 
z
" style="fill:#fdffd2;opacity:0.35;stroke:#000000;stroke-linejoin:miter;stroke-width:0.25;"/>
   </g>
   <g id="patch_76">
    <path clip-path="url(#p0403eac006)" d="M 248.609319 569.475597 
L 248.609319 569.475597 
L 248.609319 544.114177 
L 248.609319 544.114177 
z
" style="fill:#fdffd2;opacity:0.35;stroke:#000000;stroke-linejoin:miter;stroke-width:0.25;"/>
   </g>
   <g id="patch_77">
    <path clip-path="url(#p0403eac006)" d="M 246.584074 537.773823 
L 246.584074 537.773823 
L 246.584074 512.412403 
L 246.584074 512.412403 
z
" style="fill:#2f7cce;opacity:0.35;stroke:#000000;stroke-linejoin:miter;stroke-width:0.25;"/>
   </g>
   <g id="patch_78">
    <path clip-path="url(#p0403eac006)" d="M 301.854285 506.072048 
L 301.854285 506.072048 
L 301.854285 480.710629 
L 301.854285 480.710629 
z
" style="fill:#ffff80;opacity:0.35;stroke:#000000;stroke-linejoin:miter;stroke-width:0.25;"/>
   </g>
   <g id="patch_79">
    <path clip-path="url(#p0403eac006)" d="M 305.498327 474.370274 
L 305.498327 474.370274 
L 305.498327 449.008855 
L 305.498327 449.008855 
z
" style="fill:#ffff80;opacity:0.35;stroke:#000000;stroke-linejoin:miter;stroke-width:0.25;"/>
   </g>
   <g id="patch_80">
    <path clip-path="url(#p0403eac006)" d="M 237.057119 442.6685 
L 237.057119 442.6685 
L 237.057119 417.307081 
L 237.057119 417.307081 
z
" style="fill:#2f7cce;opacity:0.35;stroke:#000000;stroke-linejoin:miter;stroke-width:0.25;"/>
   </g>
   <g id="patch_81">
    <path clip-path="url(#p0403eac006)" d="M 235.453396 410.966726 
L 235.453396 410.966726 
L 235.453396 385.605306 
L 235.453396 385.605306 
z
" style="fill:#2f7cce;opacity:0.35;stroke:#000000;stroke-linejoin:miter;stroke-width:0.25;"/>
   </g>
   <g id="patch_82">
    <path clip-path="url(#p0403eac006)" d="M 235.411376 379.264952 
L 235.411376 379.264952 
L 235.411376 353.903532 
L 235.411376 353.903532 
z
" style="fill:#2f7cce;opacity:0.35;stroke:#000000;stroke-linejoin:miter;stroke-width:0.25;"/>
   </g>
   <g id="patch_83">
    <path clip-path="url(#p0403eac006)" d="M 322.602511 347.563177 
L 322.602511 347.563177 
L 322.602511 322.201758 
L 322.602511 322.201758 
z
" style="fill:#ffff80;opacity:0.35;stroke:#000000;stroke-linejoin:miter;stroke-width:0.25;"/>
   </g>
   <g id="patch_84">
    <path clip-path="url(#p0403eac006)" d="M 337.893369 315.861403 
L 337.893369 315.861403 
L 337.893369 290.499984 
L 337.893369 290.499984 
z
" style="fill:#c4cafc;opacity:0.35;stroke:#000000;stroke-linejoin:miter;stroke-width:0.25;"/>
   </g>
   <g id="patch_85">
    <path clip-path="url(#p0403eac006)" d="M 193.965232 284.159629 
L 193.965232 284.159629 
L 193.965232 258.79821 
L 193.965232 258.79821 
z
" style="fill:#2f7cce;opacity:0.35;stroke:#000000;stroke-linejoin:miter;stroke-width:0.25;"/>
   </g>
   <g id="patch_86">
    <path clip-path="url(#p0403eac006)" d="M 131.432044 252.457855 
L 131.432044 252.457855 
L 131.432044 227.096435 
L 131.432044 227.096435 
z
" style="fill:#2f7cce;opacity:0.35;stroke:#000000;stroke-linejoin:miter;stroke-width:0.25;"/>
   </g>
   <g id="patch_87">
    <path clip-path="url(#p0403eac006)" d="M 273.392957 1013.300436 
L 273.392957 1013.300436 
L 273.392957 987.939016 
L 273.392957 987.939016 
z
" style="fill:#9e75b7;opacity:0.35;stroke:#000000;stroke-linejoin:miter;stroke-width:0.25;"/>
   </g>
   <g id="patch_88">
    <path clip-path="url(#p0403eac006)" d="M 273.392957 981.598661 
L 273.392957 981.598661 
L 273.392957 956.237242 
L 273.392957 956.237242 
z
" style="fill:#9e75b7;opacity:0.35;stroke:#000000;stroke-linejoin:miter;stroke-width:0.25;"/>
   </g>
   <g id="patch_89">
    <path clip-path="url(#p0403eac006)" d="M 273.392957 949.896887 
L 273.392957 949.896887 
L 273.392957 924.535468 
L 273.392957 924.535468 
z
" style="fill:#9e75b7;opacity:0.35;stroke:#000000;stroke-linejoin:miter;stroke-width:0.25;"/>
   </g>
   <g id="patch_90">
    <path clip-path="url(#p0403eac006)" d="M 273.392957 918.195113 
L 273.392957 918.195113 
L 273.392957 892.833694 
L 273.392957 892.833694 
z
" style="fill:#9e75b7;opacity:0.35;stroke:#000000;stroke-linejoin:miter;stroke-width:0.25;"/>
   </g>
   <g id="patch_91">
    <path clip-path="url(#p0403eac006)" d="M 273.392957 886.493339 
L 273.392957 886.493339 
L 273.392957 861.131919 
L 273.392957 861.131919 
z
" style="fill:#9e75b7;opacity:0.35;stroke:#000000;stroke-linejoin:miter;stroke-width:0.25;"/>
   </g>
   <g id="patch_92">
    <path clip-path="url(#p0403eac006)" d="M 273.392957 854.791565 
L 273.392957 854.791565 
L 273.392957 829.430145 
L 273.392957 829.430145 
z
" style="fill:#9e75b7;opacity:0.35;stroke:#000000;stroke-linejoin:miter;stroke-width:0.25;"/>
   </g>
   <g id="patch_93">
    <path clip-path="url(#p0403eac006)" d="M 273.392957 823.08979 
L 273.392957 823.08979 
L 273.392957 797.728371 
L 273.392957 797.728371 
z
" style="fill:#9e75b7;opacity:0.35;stroke:#000000;stroke-linejoin:miter;stroke-width:0.25;"/>
   </g>
   <g id="patch_94">
    <path clip-path="url(#p0403eac006)" d="M 273.392957 791.388016 
L 273.392957 791.388016 
L 273.392957 766.026597 
L 273.392957 766.026597 
z
" style="fill:#9e75b7;opacity:0.35;stroke:#000000;stroke-linejoin:miter;stroke-width:0.25;"/>
   </g>
   <g id="patch_95">
    <path clip-path="url(#p0403eac006)" d="M 273.392957 759.686242 
L 273.392957 759.686242 
L 273.392957 734.324823 
L 273.392957 734.324823 
z
" style="fill:#9e75b7;opacity:0.35;stroke:#000000;stroke-linejoin:miter;stroke-width:0.25;"/>
   </g>
   <g id="patch_96">
    <path clip-path="url(#p0403eac006)" d="M 273.392957 727.984468 
L 273.392957 727.984468 
L 273.392957 702.623048 
L 273.392957 702.623048 
z
" style="fill:#9e75b7;opacity:0.35;stroke:#000000;stroke-linejoin:miter;stroke-width:0.25;"/>
   </g>
   <g id="patch_97">
    <path clip-path="url(#p0403eac006)" d="M 273.392957 696.282694 
L 273.392957 696.282694 
L 273.392957 670.921274 
L 273.392957 670.921274 
z
" style="fill:#9e75b7;opacity:0.35;stroke:#000000;stroke-linejoin:miter;stroke-width:0.25;"/>
   </g>
   <g id="patch_98">
    <path clip-path="url(#p0403eac006)" d="M 273.392957 664.580919 
L 273.392957 664.580919 
L 273.392957 639.2195 
L 273.392957 639.2195 
z
" style="fill:#9e75b7;opacity:0.35;stroke:#000000;stroke-linejoin:miter;stroke-width:0.25;"/>
   </g>
   <g id="patch_99">
    <path clip-path="url(#p0403eac006)" d="M 273.392957 632.879145 
L 273.392957 632.879145 
L 273.392957 607.517726 
L 273.392957 607.517726 
z
" style="fill:#9e75b7;opacity:0.35;stroke:#000000;stroke-linejoin:miter;stroke-width:0.25;"/>
   </g>
   <g id="patch_100">
    <path clip-path="url(#p0403eac006)" d="M 273.392957 601.177371 
L 273.392957 601.177371 
L 273.392957 575.815952 
L 273.392957 575.815952 
z
" style="fill:#9e75b7;opacity:0.35;stroke:#000000;stroke-linejoin:miter;stroke-width:0.25;"/>
   </g>
   <g id="patch_101">
    <path clip-path="url(#p0403eac006)" d="M 273.392957 569.475597 
L 273.392957 569.475597 
L 273.392957 544.114177 
L 273.392957 544.114177 
z
" style="fill:#9e75b7;opacity:0.35;stroke:#000000;stroke-linejoin:miter;stroke-width:0.25;"/>
   </g>
   <g id="patch_102">
    <path clip-path="url(#p0403eac006)" d="M 273.392957 537.773823 
L 273.392957 537.773823 
L 273.392957 512.412403 
L 273.392957 512.412403 
z
" style="fill:#9e75b7;opacity:0.35;stroke:#000000;stroke-linejoin:miter;stroke-width:0.25;"/>
   </g>
   <g id="patch_103">
    <path clip-path="url(#p0403eac006)" d="M 273.392957 506.072048 
L 273.392957 506.072048 
L 273.392957 480.710629 
L 273.392957 480.710629 
z
" style="fill:#9e75b7;opacity:0.35;stroke:#000000;stroke-linejoin:miter;stroke-width:0.25;"/>
   </g>
   <g id="patch_104">
    <path clip-path="url(#p0403eac006)" d="M 273.392957 474.370274 
L 273.392957 474.370274 
L 273.392957 449.008855 
L 273.392957 449.008855 
z
" style="fill:#9e75b7;opacity:0.35;stroke:#000000;stroke-linejoin:miter;stroke-width:0.25;"/>
   </g>
   <g id="patch_105">
    <path clip-path="url(#p0403eac006)" d="M 273.392957 442.6685 
L 273.392957 442.6685 
L 273.392957 417.307081 
L 273.392957 417.307081 
z
" style="fill:#9e75b7;opacity:0.35;stroke:#000000;stroke-linejoin:miter;stroke-width:0.25;"/>
   </g>
   <g id="patch_106">
    <path clip-path="url(#p0403eac006)" d="M 273.392957 410.966726 
L 273.392957 410.966726 
L 273.392957 385.605306 
L 273.392957 385.605306 
z
" style="fill:#9e75b7;opacity:0.35;stroke:#000000;stroke-linejoin:miter;stroke-width:0.25;"/>
   </g>
   <g id="patch_107">
    <path clip-path="url(#p0403eac006)" d="M 273.392957 379.264952 
L 273.392957 379.264952 
L 273.392957 353.903532 
L 273.392957 353.903532 
z
" style="fill:#9e75b7;opacity:0.35;stroke:#000000;stroke-linejoin:miter;stroke-width:0.25;"/>
   </g>
   <g id="patch_108">
    <path clip-path="url(#p0403eac006)" d="M 273.392957 347.563177 
L 273.392957 347.563177 
L 273.392957 322.201758 
L 273.392957 322.201758 
z
" style="fill:#9e75b7;opacity:0.35;stroke:#000000;stroke-linejoin:miter;stroke-width:0.25;"/>
   </g>
   <g id="patch_109">
    <path clip-path="url(#p0403eac006)" d="M 273.392957 315.861403 
L 273.392957 315.861403 
L 273.392957 290.499984 
L 273.392957 290.499984 
z
" style="fill:#9e75b7;opacity:0.35;stroke:#000000;stroke-linejoin:miter;stroke-width:0.25;"/>
   </g>
   <g id="patch_110">
    <path clip-path="url(#p0403eac006)" d="M 273.392957 284.159629 
L 273.392957 284.159629 
L 273.392957 258.79821 
L 273.392957 258.79821 
z
" style="fill:#9e75b7;opacity:0.35;stroke:#000000;stroke-linejoin:miter;stroke-width:0.25;"/>
   </g>
   <g id="patch_111">
    <path clip-path="url(#p0403eac006)" d="M 273.392957 252.457855 
L 273.392957 252.457855 
L 273.392957 227.096435 
L 273.392957 227.096435 
z
" style="fill:#9e75b7;opacity:0.35;stroke:#000000;stroke-linejoin:miter;stroke-width:0.25;"/>
   </g>
   <g id="line2d_14">
    <path clip-path="url(#p0403eac006)" d="M 273.392957 1018.024 
L 273.392957 63.864 
" style="fill:none;stroke:#000000;stroke-linecap:square;"/>
   </g>
   <g id="line2d_15">
    <path clip-path="url(#p0403eac006)" d="M 64.1 208.075371 
L 482.685915 208.075371 
" style="fill:none;stroke:#000000;stroke-linecap:square;stroke-width:0.7;"/>
   </g>
   <g id="line2d_16">
    <path clip-path="url(#p0403eac006)" d="M 64.1 152.597266 
L 482.685915 152.597266 
" style="fill:none;stroke:#000000;stroke-linecap:square;stroke-width:0.5;"/>
   </g>
  </g>
  <g id="axes_2">
   <g id="patch_112">
    <path d="M 95.76 950.4 
L 183.96 950.4 
L 183.96 761.4 
L 95.76 761.4 
z
" style="fill:none;opacity:0;"/>
   </g>
   <g id="matplotlib.axis_3">
    <g id="xtick_8">
     <g id="line2d_17">
      <g>
       <use style="stroke:#000000;stroke-width:0.8;" x="95.76" xlink:href="#m9306d1cfb0" y="950.4"/>
      </g>
     </g>
     <g id="text_47">
      <!-- 0 -->
      <g transform="translate(92.260625 965.758281)scale(0.11 -0.11)">
       <use xlink:href="#DejaVuSans-48"/>
      </g>
     </g>
    </g>
    <g id="xtick_9">
     <g id="line2d_18">
      <g>
       <use style="stroke:#000000;stroke-width:0.8;" x="117.81" xlink:href="#m9306d1cfb0" y="950.4"/>
      </g>
     </g>
    </g>
    <g id="xtick_10">
     <g id="line2d_19">
      <g>
       <use style="stroke:#000000;stroke-width:0.8;" x="139.86" xlink:href="#m9306d1cfb0" y="950.4"/>
      </g>
     </g>
     <g id="text_48">
      <!-- 50 -->
      <g transform="translate(132.86125 965.758281)scale(0.11 -0.11)">
       <use xlink:href="#DejaVuSans-53"/>
       <use x="63.623047" xlink:href="#DejaVuSans-48"/>
      </g>
     </g>
    </g>
    <g id="xtick_11">
     <g id="line2d_20">
      <g>
       <use style="stroke:#000000;stroke-width:0.8;" x="161.91" xlink:href="#m9306d1cfb0" y="950.4"/>
      </g>
     </g>
    </g>
    <g id="xtick_12">
     <g id="line2d_21">
      <g>
       <use style="stroke:#000000;stroke-width:0.8;" x="183.96" xlink:href="#m9306d1cfb0" y="950.4"/>
      </g>
     </g>
     <g id="text_49">
      <!-- 100 -->
      <g transform="translate(173.461875 965.758281)scale(0.11 -0.11)">
       <use xlink:href="#DejaVuSans-49"/>
       <use x="63.623047" xlink:href="#DejaVuSans-48"/>
       <use x="127.246094" xlink:href="#DejaVuSans-48"/>
      </g>
     </g>
    </g>
    <g id="text_50">
     <!-- $\sum | \delta \Phi_{\tau} |$ -->
     <g transform="translate(118.92 984.285938)scale(0.12 -0.12)">
      <defs>
       <path d="M 3.8125 101.703125 
L 90.671875 101.703125 
L 90.671875 88.375 
L 24.46875 88.375 
L 70.84375 38.875 
L 22.953125 -13.875 
L 92.484375 -13.875 
L 92.484375 -27.15625 
L 1.703125 -27.15625 
L 1.703125 -16.84375 
L 51.8125 38.484375 
L 3.8125 89.5 
z
" id="DejaVuSansDisplay-8721"/>
       <path d="M 21 76.421875 
L 21 -23.578125 
L 12.703125 -23.578125 
L 12.703125 76.421875 
z
" id="DejaVuSans-124"/>
      </defs>
      <use transform="translate(0 0.296875)" xlink:href="#DejaVuSansDisplay-8721"/>
      <use transform="translate(95.263672 0.296875)" xlink:href="#DejaVuSans-124"/>
      <use transform="translate(128.955078 0.296875)" xlink:href="#DejaVuSans-Oblique-948"/>
      <use transform="translate(190.136719 0.296875)" xlink:href="#DejaVuSans-934"/>
      <use transform="translate(269.804688 -16.109375)scale(0.7)" xlink:href="#DejaVuSans-Oblique-964"/>
      <use transform="translate(314.682617 0.296875)" xlink:href="#DejaVuSans-124"/>
     </g>
    </g>
   </g>
   <g id="matplotlib.axis_4">
    <g id="ytick_7">
     <g id="line2d_22">
      <g>
       <use style="stroke:#000000;stroke-width:0.8;" x="95.76" xlink:href="#m8b3269d447" y="761.4"/>
      </g>
     </g>
     <g id="text_51">
      <!-- $\mathdefault{10^{0}}$ -->
      <g transform="translate(69.4 765.579141)scale(0.11 -0.11)">
       <use transform="translate(0 0.765625)" xlink:href="#DejaVuSans-49"/>
       <use transform="translate(63.623047 0.765625)" xlink:href="#DejaVuSans-48"/>
       <use transform="translate(128.203125 39.046875)scale(0.7)" xlink:href="#DejaVuSans-48"/>
      </g>
     </g>
    </g>
    <g id="ytick_8">
     <g id="line2d_23">
      <g>
       <use style="stroke:#000000;stroke-width:0.8;" x="95.76" xlink:href="#m8b3269d447" y="808.554642"/>
      </g>
     </g>
     <g id="text_52">
      <!-- $\mathdefault{10^{1}}$ -->
      <g transform="translate(69.4 812.733783)scale(0.11 -0.11)">
       <use transform="translate(0 0.684375)" xlink:href="#DejaVuSans-49"/>
       <use transform="translate(63.623047 0.684375)" xlink:href="#DejaVuSans-48"/>
       <use transform="translate(128.203125 38.965625)scale(0.7)" xlink:href="#DejaVuSans-49"/>
      </g>
     </g>
    </g>
    <g id="ytick_9">
     <g id="line2d_24">
      <g>
       <use style="stroke:#000000;stroke-width:0.8;" x="95.76" xlink:href="#m8b3269d447" y="855.709285"/>
      </g>
     </g>
     <g id="text_53">
      <!-- $\mathdefault{10^{2}}$ -->
      <g transform="translate(69.4 859.888425)scale(0.11 -0.11)">
       <use transform="translate(0 0.765625)" xlink:href="#DejaVuSans-49"/>
       <use transform="translate(63.623047 0.765625)" xlink:href="#DejaVuSans-48"/>
       <use transform="translate(128.203125 39.046875)scale(0.7)" xlink:href="#DejaVuSans-50"/>
      </g>
     </g>
    </g>
    <g id="ytick_10">
     <g id="line2d_25">
      <g>
       <use style="stroke:#000000;stroke-width:0.8;" x="95.76" xlink:href="#m8b3269d447" y="902.863927"/>
      </g>
     </g>
     <g id="text_54">
      <!-- $\mathdefault{10^{3}}$ -->
      <g transform="translate(69.4 907.043067)scale(0.11 -0.11)">
       <use transform="translate(0 0.765625)" xlink:href="#DejaVuSans-49"/>
       <use transform="translate(63.623047 0.765625)" xlink:href="#DejaVuSans-48"/>
       <use transform="translate(128.203125 39.046875)scale(0.7)" xlink:href="#DejaVuSans-51"/>
      </g>
     </g>
    </g>
    <g id="ytick_11">
     <g id="line2d_26">
      <g>
       <use style="stroke:#000000;stroke-width:0.8;" x="95.76" xlink:href="#m8b3269d447" y="950.018569"/>
      </g>
     </g>
     <g id="text_55">
      <!-- $\mathdefault{10^{4}}$ -->
      <g transform="translate(69.4 954.19771)scale(0.11 -0.11)">
       <use transform="translate(0 0.684375)" xlink:href="#DejaVuSans-49"/>
       <use transform="translate(63.623047 0.684375)" xlink:href="#DejaVuSans-48"/>
       <use transform="translate(128.203125 38.965625)scale(0.7)" xlink:href="#DejaVuSans-52"/>
      </g>
     </g>
    </g>
    <g id="ytick_12">
     <g id="line2d_27">
      <defs>
       <path d="M 0 0 
L -2 0 
" id="me70e56b932" style="stroke:#000000;stroke-width:0.6;"/>
      </defs>
      <g>
       <use style="stroke:#000000;stroke-width:0.6;" x="95.76" xlink:href="#me70e56b932" y="775.594962"/>
      </g>
     </g>
    </g>
    <g id="ytick_13">
     <g id="line2d_28">
      <g>
       <use style="stroke:#000000;stroke-width:0.6;" x="95.76" xlink:href="#me70e56b932" y="783.898482"/>
      </g>
     </g>
    </g>
    <g id="ytick_14">
     <g id="line2d_29">
      <g>
       <use style="stroke:#000000;stroke-width:0.6;" x="95.76" xlink:href="#me70e56b932" y="789.789924"/>
      </g>
     </g>
    </g>
    <g id="ytick_15">
     <g id="line2d_30">
      <g>
       <use style="stroke:#000000;stroke-width:0.6;" x="95.76" xlink:href="#me70e56b932" y="794.359681"/>
      </g>
     </g>
    </g>
    <g id="ytick_16">
     <g id="line2d_31">
      <g>
       <use style="stroke:#000000;stroke-width:0.6;" x="95.76" xlink:href="#me70e56b932" y="798.093444"/>
      </g>
     </g>
    </g>
    <g id="ytick_17">
     <g id="line2d_32">
      <g>
       <use style="stroke:#000000;stroke-width:0.6;" x="95.76" xlink:href="#me70e56b932" y="801.250296"/>
      </g>
     </g>
    </g>
    <g id="ytick_18">
     <g id="line2d_33">
      <g>
       <use style="stroke:#000000;stroke-width:0.6;" x="95.76" xlink:href="#me70e56b932" y="803.984885"/>
      </g>
     </g>
    </g>
    <g id="ytick_19">
     <g id="line2d_34">
      <g>
       <use style="stroke:#000000;stroke-width:0.6;" x="95.76" xlink:href="#me70e56b932" y="806.396964"/>
      </g>
     </g>
    </g>
    <g id="ytick_20">
     <g id="line2d_35">
      <g>
       <use style="stroke:#000000;stroke-width:0.6;" x="95.76" xlink:href="#me70e56b932" y="822.749604"/>
      </g>
     </g>
    </g>
    <g id="ytick_21">
     <g id="line2d_36">
      <g>
       <use style="stroke:#000000;stroke-width:0.6;" x="95.76" xlink:href="#me70e56b932" y="831.053124"/>
      </g>
     </g>
    </g>
    <g id="ytick_22">
     <g id="line2d_37">
      <g>
       <use style="stroke:#000000;stroke-width:0.6;" x="95.76" xlink:href="#me70e56b932" y="836.944566"/>
      </g>
     </g>
    </g>
    <g id="ytick_23">
     <g id="line2d_38">
      <g>
       <use style="stroke:#000000;stroke-width:0.6;" x="95.76" xlink:href="#me70e56b932" y="841.514323"/>
      </g>
     </g>
    </g>
    <g id="ytick_24">
     <g id="line2d_39">
      <g>
       <use style="stroke:#000000;stroke-width:0.6;" x="95.76" xlink:href="#me70e56b932" y="845.248086"/>
      </g>
     </g>
    </g>
    <g id="ytick_25">
     <g id="line2d_40">
      <g>
       <use style="stroke:#000000;stroke-width:0.6;" x="95.76" xlink:href="#me70e56b932" y="848.404938"/>
      </g>
     </g>
    </g>
    <g id="ytick_26">
     <g id="line2d_41">
      <g>
       <use style="stroke:#000000;stroke-width:0.6;" x="95.76" xlink:href="#me70e56b932" y="851.139528"/>
      </g>
     </g>
    </g>
    <g id="ytick_27">
     <g id="line2d_42">
      <g>
       <use style="stroke:#000000;stroke-width:0.6;" x="95.76" xlink:href="#me70e56b932" y="853.551606"/>
      </g>
     </g>
    </g>
    <g id="ytick_28">
     <g id="line2d_43">
      <g>
       <use style="stroke:#000000;stroke-width:0.6;" x="95.76" xlink:href="#me70e56b932" y="869.904246"/>
      </g>
     </g>
    </g>
    <g id="ytick_29">
     <g id="line2d_44">
      <g>
       <use style="stroke:#000000;stroke-width:0.6;" x="95.76" xlink:href="#me70e56b932" y="878.207767"/>
      </g>
     </g>
    </g>
    <g id="ytick_30">
     <g id="line2d_45">
      <g>
       <use style="stroke:#000000;stroke-width:0.6;" x="95.76" xlink:href="#me70e56b932" y="884.099208"/>
      </g>
     </g>
    </g>
    <g id="ytick_31">
     <g id="line2d_46">
      <g>
       <use style="stroke:#000000;stroke-width:0.6;" x="95.76" xlink:href="#me70e56b932" y="888.668965"/>
      </g>
     </g>
    </g>
    <g id="ytick_32">
     <g id="line2d_47">
      <g>
       <use style="stroke:#000000;stroke-width:0.6;" x="95.76" xlink:href="#me70e56b932" y="892.402728"/>
      </g>
     </g>
    </g>
    <g id="ytick_33">
     <g id="line2d_48">
      <g>
       <use style="stroke:#000000;stroke-width:0.6;" x="95.76" xlink:href="#me70e56b932" y="895.55958"/>
      </g>
     </g>
    </g>
    <g id="ytick_34">
     <g id="line2d_49">
      <g>
       <use style="stroke:#000000;stroke-width:0.6;" x="95.76" xlink:href="#me70e56b932" y="898.29417"/>
      </g>
     </g>
    </g>
    <g id="ytick_35">
     <g id="line2d_50">
      <g>
       <use style="stroke:#000000;stroke-width:0.6;" x="95.76" xlink:href="#me70e56b932" y="900.706249"/>
      </g>
     </g>
    </g>
    <g id="ytick_36">
     <g id="line2d_51">
      <g>
       <use style="stroke:#000000;stroke-width:0.6;" x="95.76" xlink:href="#me70e56b932" y="917.058889"/>
      </g>
     </g>
    </g>
    <g id="ytick_37">
     <g id="line2d_52">
      <g>
       <use style="stroke:#000000;stroke-width:0.6;" x="95.76" xlink:href="#me70e56b932" y="925.362409"/>
      </g>
     </g>
    </g>
    <g id="ytick_38">
     <g id="line2d_53">
      <g>
       <use style="stroke:#000000;stroke-width:0.6;" x="95.76" xlink:href="#me70e56b932" y="931.25385"/>
      </g>
     </g>
    </g>
    <g id="ytick_39">
     <g id="line2d_54">
      <g>
       <use style="stroke:#000000;stroke-width:0.6;" x="95.76" xlink:href="#me70e56b932" y="935.823607"/>
      </g>
     </g>
    </g>
    <g id="ytick_40">
     <g id="line2d_55">
      <g>
       <use style="stroke:#000000;stroke-width:0.6;" x="95.76" xlink:href="#me70e56b932" y="939.557371"/>
      </g>
     </g>
    </g>
    <g id="ytick_41">
     <g id="line2d_56">
      <g>
       <use style="stroke:#000000;stroke-width:0.6;" x="95.76" xlink:href="#me70e56b932" y="942.714223"/>
      </g>
     </g>
    </g>
    <g id="ytick_42">
     <g id="line2d_57">
      <g>
       <use style="stroke:#000000;stroke-width:0.6;" x="95.76" xlink:href="#me70e56b932" y="945.448812"/>
      </g>
     </g>
    </g>
    <g id="ytick_43">
     <g id="line2d_58">
      <g>
       <use style="stroke:#000000;stroke-width:0.6;" x="95.76" xlink:href="#me70e56b932" y="947.860891"/>
      </g>
     </g>
    </g>
   </g>
   <g id="LineCollection_1">
    <path clip-path="url(#p016aef08dd)" d="M 95.76 827.319361 
L 183.96 827.319361 
" style="fill:none;stroke:#000000;stroke-width:0.5;"/>
   </g>
   <g id="line2d_59">
    <path clip-path="url(#p016aef08dd)" d="M 97.601576 761.4 
L 98.631946 775.594962 
L 100.599752 794.359681 
L 101.979767 803.984885 
L 103.33224 812.288406 
L 104.775649 819.421379 
L 106.081448 824.701461 
L 107.316723 828.895446 
L 109.328515 834.786888 
L 112.569342 843.090408 
L 115.047042 848.695425 
L 117.417182 853.551606 
L 119.764132 857.846473 
L 122.570311 862.453096 
L 125.650594 867.052298 
L 128.746953 871.193907 
L 132.481908 875.821271 
L 136.016627 879.846961 
L 139.944947 883.996556 
L 144.777834 888.791472 
L 153.621939 897.108559 
L 160.719853 903.765349 
L 166.426298 909.459875 
L 169.650911 912.957316 
L 172.039361 915.802632 
L 174.516626 919.094353 
L 176.720055 922.384533 
L 178.586817 925.586448 
L 180.048543 928.489984 
L 181.303573 931.482953 
L 182.330435 934.517208 
L 183.046812 937.338924 
L 183.549049 940.192508 
L 183.850531 943.228463 
L 183.959725 946.627606 
L 183.96 950.39799 
L 183.96 950.39799 
" style="fill:none;stroke:#000000;stroke-linecap:square;stroke-width:0.5;"/>
   </g>
   <g id="patch_113">
    <path d="M 95.76 950.4 
L 95.76 761.4 
" style="fill:none;stroke:#000000;stroke-linecap:square;stroke-linejoin:miter;stroke-width:0.8;"/>
   </g>
   <g id="patch_114">
    <path d="M 183.96 950.4 
L 183.96 761.4 
" style="fill:none;stroke:#000000;stroke-linecap:square;stroke-linejoin:miter;stroke-width:0.8;"/>
   </g>
   <g id="patch_115">
    <path d="M 95.76 950.4 
L 183.96 950.4 
" style="fill:none;stroke:#000000;stroke-linecap:square;stroke-linejoin:miter;stroke-width:0.8;"/>
   </g>
   <g id="patch_116">
    <path d="M 95.76 761.4 
L 183.96 761.4 
" style="fill:none;stroke:#000000;stroke-linecap:square;stroke-linejoin:miter;stroke-width:0.8;"/>
   </g>
  </g>
  <g id="axes_3">
   <g id="patch_117">
    <path d="M 408.24 950.4 
L 448.56 950.4 
L 448.56 864 
L 408.24 864 
z
" style="fill:#ffffff;"/>
   </g>
   <g id="patch_118">
    <path clip-path="url(#pefa30d1536)" d="M 408.24 902.88 
L 446.64 902.88 
L 446.64 894.24 
L 408.24 894.24 
z
" style="fill:#707070;stroke:#000000;stroke-linejoin:miter;stroke-width:0.5;"/>
   </g>
   <g id="patch_119">
    <path clip-path="url(#pefa30d1536)" d="M 408.24 920.16 
L 408.337778 920.16 
L 408.337778 911.52 
L 408.24 911.52 
z
" style="fill:#707070;stroke:#000000;stroke-linejoin:miter;stroke-width:0.5;"/>
   </g>
   <g id="matplotlib.axis_5">
    <g id="ytick_44">
     <g id="line2d_60"/>
     <g id="text_56">
      <!-- ref -->
      <g transform="translate(388.46875 903.119063)scale(0.12 -0.12)">
       <use xlink:href="#DejaVuSans-114"/>
       <use x="38.863281" xlink:href="#DejaVuSans-101"/>
       <use x="100.386719" xlink:href="#DejaVuSans-102"/>
      </g>
     </g>
    </g>
    <g id="ytick_45">
     <g id="line2d_61"/>
     <g id="text_57">
      <!-- d -->
      <g transform="translate(397.121875 920.399063)scale(0.12 -0.12)">
       <use xlink:href="#DejaVuSans-100"/>
      </g>
     </g>
    </g>
   </g>
   <g id="text_58">
    <!-- Text Size: -->
    <g transform="translate(394.33 885.6)scale(0.14 -0.14)">
     <defs>
      <path d="M -0.296875 72.90625 
L 61.375 72.90625 
L 61.375 64.59375 
L 35.5 64.59375 
L 35.5 0 
L 25.59375 0 
L 25.59375 64.59375 
L -0.296875 64.59375 
z
" id="DejaVuSans-84"/>
      <path d="M 5.515625 54.6875 
L 48.1875 54.6875 
L 48.1875 46.484375 
L 14.40625 7.171875 
L 48.1875 7.171875 
L 48.1875 0 
L 4.296875 0 
L 4.296875 8.203125 
L 38.09375 47.515625 
L 5.515625 47.515625 
z
" id="DejaVuSans-122"/>
     </defs>
     <use xlink:href="#DejaVuSans-84"/>
     <use x="44.083984" xlink:href="#DejaVuSans-101"/>
     <use x="103.857422" xlink:href="#DejaVuSans-120"/>
     <use x="163.037109" xlink:href="#DejaVuSans-116"/>
     <use x="202.246094" xlink:href="#DejaVuSans-32"/>
     <use x="234.033203" xlink:href="#DejaVuSans-83"/>
     <use x="297.509766" xlink:href="#DejaVuSans-105"/>
     <use x="325.292969" xlink:href="#DejaVuSans-122"/>
     <use x="377.783203" xlink:href="#DejaVuSans-101"/>
     <use x="439.306641" xlink:href="#DejaVuSans-58"/>
    </g>
   </g>
  </g>
 </g>
 <defs>
  <clipPath id="p0403eac006">
   <rect height="954.16" width="418.585915" x="64.1" y="63.864"/>
  </clipPath>
  <clipPath id="p016aef08dd">
   <rect height="189" width="88.2" x="95.76" y="761.4"/>
  </clipPath>
  <clipPath id="pefa30d1536">
   <rect height="86.4" width="40.32" x="408.24" y="864"/>
  </clipPath>
 </defs>
</svg>
